<ttFont>
<head>
    <!-- Most of this table will be recalculated by the compiler -->
    <tableVersion value="1.0"/>
    <fontRevision value="2.01"/>
    <checkSumAdjustment value="0x9b002019"/>
    <magicNumber value="0x5f0f3cf5"/>
    <flags value="00000000 00000011"/>
    <unitsPerEm value="1000"/>
    <created value="Wed Feb  7 19:20:26 2018"/>
    <modified value="Wed Feb  7 19:20:26 2018"/>
    <xMin value="-459"/>
    <yMin value="-678"/>
    <xMax value="1840"/>
    <yMax value="1016"/>
    <macStyle value="00000000 00000000"/>
    <lowestRecPPEM value="3"/>
    <fontDirectionHint value="2"/>
    <indexToLocFormat value="0"/>
    <glyphDataFormat value="0"/>
  </head>
          <CharString index="0">
            -22 callgsubr
            -104 callsubr
            return
          </CharString>
          <CharString index="1">
            37 callgsubr
            -16 2 -17 2 -11 vhcurveto
            118 hlineto
            -2 10 -2 12 16 vvcurveto
            28 9 23 43 43 9 -21 -28 vhcurveto
            -122 vlineto
            -28 -9 -20 -43 -24 -22 6 2 -6 vhcurveto
            53 -118 -225 vlineto
            -100 59 -78 132 59 42 9 12 36 vhcurveto
            -72 callgsubr
            return
          </CharString>
          <CharString index="2">
            109 vlineto
            -13 -35 -35 -10 -51 257 callsubr
            18 -2 22 hhcurveto
            return
          </CharString>
          <CharString index="3">
            -43 -11 20 30 hvcurveto
            149 vlineto
            30 11 20 43 6 6 -1 -1 2 vhcurveto
            101 vlineto
            -2 -12 3 -15 hhcurveto
            return
          </CharString>
          <CharString index="4">
            -98 callgsubr
            78 3 39 39 79 vvcurveto
            return
          </CharString>
          <CharString index="5">
            -103 callsubr
            -122 -35 callsubr
            return
          </CharString>
          <CharString index="6">
            149 callgsubr
            124 10 callsubr
            return
          </CharString>
          <CharString index="7">
            -107 callsubr
            -105 130 callsubr
            -85 callgsubr
            return
          </CharString>
          <CharString index="8">
            -94 callgsubr
            86 return
          </CharString>
          <CharString index="9">
            -131 -97 callsubr
            return
          </CharString>
          <CharString index="10">
            vlineto
            -99 callgsubr
            return
          </CharString>
          <CharString index="11">
            67 callsubr
            41 -39 callgsubr
            122 vlineto
            28 return
          </CharString>
          <CharString index="12">
            -99 286 -403 vlineto
            -92 callsubr
            return
          </CharString>
          <CharString index="13">
            rmoveto
            -28 -8 230 callsubr
            18 28 vhcurveto
            91 144 callgsubr
            return
          </CharString>
          <CharString index="14">
            rmoveto
            -95 callgsubr
            return
          </CharString>
          <CharString index="15">
            -100 callsubr
            116 return
          </CharString>
          <CharString index="16">
            15 165 433 rmoveto
            34 19 20 39 39 20 -20 -34 vhcurveto
            -94 -117 vlineto
            220 -327 rmoveto
            113 vlineto
            -6 -22 -49 -13 -58 hhcurveto
            -70 -21 20 45 hvcurveto
            69 235 194 vlineto
            96 -51 260 callgsubr
            -55 -64 -96 vhcurveto
            -273 333 callsubr
            -59 142 76 34 10 8 31 vhcurveto
            return
          </CharString>
          <CharString index="17">
            -97 45 -54 113 113 44 54 97 vhcurveto
            return
          </CharString>
          <CharString index="18">
            -7 callgsubr
            -20 18 35 hvcurveto
            142 vlineto
            34 19 18 45 25 21 -4 -3 13 vhcurveto
            return
          </CharString>
          <CharString index="19">
            rmoveto
            39 13 20 29 30 -13 20 -39 -40 -12 -20 -30 -29 12 -20 40 hvcurveto
            160 hmoveto
            40 13 20 29 30 -13 20 -40 -40 -12 -20 -30 -29 12 -20 40 hvcurveto
            return
          </CharString>
          <CharString index="20">
            -65 callsubr
            6 hhcurveto
            106 45 69 callgsubr
            -108 -35 -26 -9 0 vhcurveto
            74 287 99 return
          </CharString>
          <CharString index="21">
            -74 callsubr
            4 vhcurveto
            -65 return
          </CharString>
          <CharString index="22">
            6 22 471 rmoveto
            -74 38 -43 56 -32 vhcurveto
            110 -59 rlineto
            36 -20 12 -14 -34 vvcurveto
            -23 vlineto
            -34 -27 -25 -69 -58 -56 13 14 -34 vhcurveto
            -123 vlineto
            -8 21 59 -14 69 hhcurveto
            150 73 60 101 hvcurveto
            60 vlineto
            66 -28 39 -54 29 vhcurveto
            -114 65 rlineto
            -42 23 -12 15 40 vvcurveto
            24 vlineto
            34 17 23 62 58 44 -10 -14 33 vhcurveto
            122 vlineto
            8 -21 -48 12 -69 hhcurveto
            -142 -64 -61 -99 hvcurveto
            return
          </CharString>
          <CharString index="23">
            rmoveto
            -98 50 -51 109 30 22 3 4 16 vhcurveto
            -74 118 269 -118 -91 vlineto
            -52 callsubr
            90 99 return
          </CharString>
          <CharString index="24">
            -81 callsubr
            -162 vlineto
            -55 callsubr
            return
          </CharString>
          <CharString index="25">
            212 callsubr
            -35 -42 -8 -48 -90 callgsubr
            return
          </CharString>
          <CharString index="26">
            -22 -29 -20 hvcurveto
            24 -14 -34 28 -63 hhcurveto
            -107 145 callsubr
            return
          </CharString>
          <CharString index="27">
            vlineto
            -70 callsubr
            return
          </CharString>
          <CharString index="28">
            30 42 149 rmoveto
            -95 56 -64 126 126 56 64 95 vhcurveto
            286 vlineto
            95 -56 260 callgsubr
            -56 -64 -95 vhcurveto
            238 -282 rmoveto
            -32 -17 -22 -39 -39 -18 22 32 vhcurveto
            278 vlineto
            32 18 22 39 39 17 -22 -32 vhcurveto
            return
          </CharString>
          <CharString index="29">
            259 callgsubr
            24 -4 38 hhcurveto
            118 286 callgsubr
            return
          </CharString>
          <CharString index="30">
            hhcurveto
            -55 -30 -83 callsubr
            return
          </CharString>
          <CharString index="31">
            -70 callgsubr
            -78 return
          </CharString>
          <CharString index="32">
            -122 93 -58 129 37 32 -43 callgsubr
            return
          </CharString>
          <CharString index="33">
            vlineto
            -96 46 -39 callsubr
            return
          </CharString>
          <CharString index="34">
            -88 -66 callgsubr
            88 vhcurveto
            return
          </CharString>
          <CharString index="35">
            204 -94 callsubr
            return
          </CharString>
          <CharString index="36">
            vlineto
            -105 callgsubr
            return
          </CharString>
          <CharString index="37">
            106 callgsubr
            -82 callsubr
            return
          </CharString>
          <CharString index="38">
            -7 21 -12 17 -17 10 rrcurveto
            35 20 11 43 46 vvcurveto
            37 vlineto
            99 -55 62 -140 -38 -32 -5 -8 -24 vhcurveto
            -108 vlineto
            9 32 33 4 29 hhcurveto
            58 21 -19 -38 hvcurveto
            -33 vlineto
            -35 -14 -20 -48 vhcurveto
            -59 -109 59 hlineto
            48 14 -21 -36 hvcurveto
            return
          </CharString>
          <CharString index="39">
            118 384 hlineto
            0 20 8 26 42 11 -19 -28 vhcurveto
            -127 vlineto
            -34 -9 -14 return
          </CharString>
          <CharString index="40">
            138 callsubr
            113 0 callgsubr
            -2 5 vhcurveto
            -112 hmoveto
            -69 callgsubr
          </CharString>
          <CharString index="41">
            -99 vlineto
            -55 callgsubr
            return
          </CharString>
          <CharString index="42">
            -68 callsubr
            -41 1 vhcurveto
            -110 vlineto
            -1 5 6 0 return
          </CharString>
          <CharString index="43">
            154 callsubr
            97 -323 119 -42 callsubr
            -205 -242 -92 94 96 callsubr
            -17 4 -24 84 callgsubr
            -4 20 18 54 callsubr
            endchar
          </CharString>
          <CharString index="44">
            -18 callgsubr
            -17 -20 -1 -21 hhcurveto
            -68 -12 29 40 hvcurveto
            return
          </CharString>
          <CharString index="45">
            rmoveto
            -39 -56 -40 56 rlineto
            -64 hlineto
            57 -113 rlineto
            93 hlineto
            57 224 callgsubr
          </CharString>
          <CharString index="46">
            vlineto
            -75 callsubr
            return
          </CharString>
          <CharString index="47">
            83 callgsubr
            -7 19 0 vhcurveto
            return
          </CharString>
          <CharString index="48">
            -34 callgsubr
            -54 vlineto
            return
          </CharString>
          <CharString index="49">
            rmoveto
            97 -53 44 -117 vhcurveto
            -23 hlineto
            -35 -9 16 25 hvcurveto
            18 207 callsubr
            94 99 return
          </CharString>
          <CharString index="50">
            rmoveto
            -518 vlineto
            -38 -20 -25 -50 -51 -18 25 38 vhcurveto
            518 -127 -524 vlineto
            -101 62 333 callgsubr
            63 72 101 vhcurveto
            524 vlineto
            return
          </CharString>
          <CharString index="51">
            rmoveto
            -43 -113 rlineto
            69 hlineto
            71 224 callgsubr
          </CharString>
          <CharString index="52">
            -63 callsubr
            154 vlineto
            29 8 20 41 return
          </CharString>
          <CharString index="53">
            -90 callgsubr
            259 -74 hlineto
            1 -6 -27 5 -31 175 callgsubr
            211 21 callgsubr
            return
          </CharString>
          <CharString index="54">
            162 -15 callsubr
            return
          </CharString>
          <CharString index="55">
            -4 -15 -14 -3 -22 hhcurveto
            -44 -14 18 31 hvcurveto
            126 vlineto
            29 235 callgsubr
            163 176 return
          </CharString>
          <CharString index="56">
            -75 callgsubr
            endchar
          </CharString>
          <CharString index="57">
            27 -43 callsubr
            return
          </CharString>
          <CharString index="58">
            -131 vlineto
            -24 callsubr
          </CharString>
          <CharString index="59">
            vlineto
            28 11 19 42 vhcurveto
            43 hlineto
            37 7 -13 -31 hvcurveto
            -20 105 30 vlineto
            88 -37 44 -98 vhcurveto
            -66 hlineto
            -32 -12 11 23 hvcurveto
            10 309 callsubr
            33 vhcurveto
            176 161 96 99 return
          </CharString>
          <CharString index="60">
            56 344 hmoveto
            122 hlineto
            -139 687 rlineto
            -178 hlineto
            -141 -687 rlineto
            123 hlineto
            31 168 310 callgsubr
            return
          </CharString>
          <CharString index="61">
            vlineto
            -80 callgsubr
            return
          </CharString>
          <CharString index="62">
            -2 callgsubr
            -11 -21 -42 return
          </CharString>
          <CharString index="63">
            43 vhcurveto
            46 109 -42 194 callsubr
            return
          </CharString>
          <CharString index="64">
            112 hlineto
            -43 -1 -17 11 36 vvcurveto
            return
          </CharString>
          <CharString index="65">
            566 86 99 return
          </CharString>
          <CharString index="66">
            -40 callsubr
            -112 118 return
          </CharString>
          <CharString index="67">
            -97 45 -53 113 101 callgsubr
            vhcurveto
            return
          </CharString>
          <CharString index="68">
            -47 105 110 callsubr
            return
          </CharString>
          <CharString index="69">
            275 callgsubr
            -7 19 0 vhcurveto
            99 hlineto
            return
          </CharString>
          <CharString index="70">
            -47 callgsubr
            106 callgsubr
            return
          </CharString>
          <CharString index="71">
            rmoveto
            -123 165 rlineto
            -107 hlineto
            107 -165 rlineto
            return
          </CharString>
          <CharString index="72">
            130 rmoveto
            -59 callsubr
            return
          </CharString>
          <CharString index="73">
            10 callgsubr
            127 256 42 vlineto
            95 -256 261 callgsubr
            -108 268 rlineto
            58 21 25 50 76 vvcurveto
            119 vlineto
            100 -63 53 -107 vhcurveto
            43 -270 rmoveto
            -41 -15 -18 -41 vhcurveto
            -68 220 68 hlineto
            38 18 -15 -39 hvcurveto
            return
          </CharString>
          <CharString index="74">
            7 7 35 vhcurveto
            317 callsubr
            -49 hhcurveto
            -60 -31 16 50 hvcurveto
            return
          </CharString>
          <CharString index="75">
            132 hlineto
            129 194 rlineto
            372 vmoveto
            -274 vlineto
            -2 -5 -20 -7 -28 75 callgsubr
            234 vlineto
            endchar
          </CharString>
          <CharString index="76">
            30 21 -6 -6 18 hvcurveto
            -136 vlineto
            -135 124 rlineto
            15 11 20 9 35 hhcurveto
            return
          </CharString>
          <CharString index="77">
            -68 callsubr
            -40 1 vhcurveto
            -110 vlineto
            -1 4 7 0 6 hhcurveto
            106 44 70 callgsubr
            return
          </CharString>
          <CharString index="78">
            -116 70 -77 148 44 54 7 11 return
          </CharString>
          <CharString index="79">
            120 callgsubr
            438 vmoveto
            -334 vlineto
            -2 -4 -21 -7 -27 75 callgsubr
            294 vlineto
            endchar
          </CharString>
          <CharString index="80">
            hhcurveto
            284 callgsubr
            hvcurveto
            -9 callgsubr
            return
          </CharString>
          <CharString index="81">
            35 -7 -12 callgsubr
            return
          </CharString>
          <CharString index="82">
            197 575 340 rmoveto
            76 -27 52 -67 18 vhcurveto
            80 169 99 -685 -99 398 -84 vlineto
            -23 -6 -17 -13 -13 -18 rrcurveto
            32 -24 -37 16 -51 hhcurveto
            -111 -47 -53 -97 hvcurveto
            -195 vlineto
            -96 47 -57 111 51 37 17 30 24 vhcurveto
            3 -4 4 -4 4 -4 -63 -130 rcurveline
            121 hlineto
            40 95 rlineto
            2 hlineto
            6 5 0 5 hhcurveto
            40 -95 178 callsubr
            -63 130 rlineto
            28 27 12 40 51 vvcurveto
            -424 191 rmoveto
            29 8 22 43 43 9 -22 -29 vhcurveto
            -189 vlineto
            -30 -9 -21 -43 -43 -8 21 30 vhcurveto
            215 189 rmoveto
            29 8 22 43 43 8 -22 -29 vhcurveto
            -189 vlineto
            -30 -7 -21 -43 -43 -9 21 30 vhcurveto
            return
          </CharString>
          <CharString index="83">
            -99 callgsubr
            -112 hmoveto
            -69 callgsubr
          </CharString>
          <CharString index="84">
            2 -6 -21 5 -28 323 callgsubr
            -63 hhcurveto
            return
          </CharString>
          <CharString index="85">
            vlineto
            28 8 18 return
          </CharString>
          <CharString index="86">
            -70 119 -42 callsubr
            -205 -489 vlineto
            -7 -24 -25 -4 -34 hhcurveto
            -54 -34 66 callgsubr
            15 17 0 vhcurveto
            68 99 return
          </CharString>
          <CharString index="87">
            16 callgsubr
            45 166 callsubr
            -259 -99 91 hlineto
            0 -7 76 callsubr
            return
          </CharString>
          <CharString index="88">
            18 35 hvcurveto
            142 vlineto
            34 20 18 44 25 21 -4 -3 14 vhcurveto
            return
          </CharString>
          <CharString index="89">
            -107 105 686 rmoveto
            -39 -102 rlineto
            -61 -108 56 -336 hlineto
            -91 39 -57 111 48 34 14 1 3 vhcurveto
            114 vlineto
            -1 -3 -24 -13 -33 hhcurveto
            -33 -14 16 29 hvcurveto
            324 100 108 -100 102 vlineto
            return
          </CharString>
          <CharString index="90">
            123 callgsubr
            53 39 -33 callsubr
            return
          </CharString>
          <CharString index="91">
            -135 95 -74 157 50 37 4 9 38 vhcurveto
            -90 107 callgsubr
            -467 vlineto
            -9 -37 -32 -3 -49 hhcurveto
            -103 -35 334 callsubr
          </CharString>
          <CharString index="92">
            -58 callsubr
            -494 -99 282 -62 -45 hlineto
            99 callsubr
            -53 -49 8 9 -39 vhcurveto
            -108 vlineto
            return
          </CharString>
          <CharString index="93">
            173 callsubr
            74 144 callgsubr
            return
          </CharString>
          <CharString index="94">
            rmoveto
            32 -6 22 0 vhcurveto
            86 252 callgsubr
            return
          </CharString>
          <CharString index="95">
            161 callsubr
            endchar
          </CharString>
          <CharString index="96">
            -116 56 -58 136 return
          </CharString>
          <CharString index="97">
            -304 vlineto
            -28 -7 -20 -43 -42 -8 20 28 vhcurveto
            return
          </CharString>
          <CharString index="98">
            vlineto
            -28 -8 -19 return
          </CharString>
          <CharString index="99">
            382 rmoveto
            -3 callsubr
            return
          </CharString>
          <CharString index="100">
            -24 127 callsubr
            return
          </CharString>
          <CharString index="101">
            209 callsubr
            118 hmoveto
            -51 callsubr
          </CharString>
          <CharString index="102">
            3 0 4 4 vvcurveto
            return
          </CharString>
          <CharString index="103">
            44 42 155 rmoveto
            -103 70 -57 137 92 46 21 20 36 vhcurveto
            324 -124 -239 vlineto
            -5 -8 -21 -7 -23 hhcurveto
            -57 -20 21 38 hvcurveto
            345 vlineto
            37 27 25 66 50 50 -10 -12 34 vhcurveto
            120 vlineto
            9 -28 -52 10 -56 hhcurveto
            -147 -72 -66 -99 hvcurveto
            return
          </CharString>
          <CharString index="104">
            130 -44 callgsubr
            return
          </CharString>
          <CharString index="105">
            21 28 hvcurveto
            307 101 vlineto
            return
          </CharString>
          <CharString index="106">
            -51 -14 -29 -37 -36 221 callgsubr
            return
          </CharString>
          <CharString index="107">
            -99 270 hlineto
            -37 callsubr
            return
          </CharString>
          <CharString index="108">
            -133 rmoveto
            -1 -3 -20 -5 -27 hhcurveto
            -43 -12 229 callgsubr
            29 12 19 43 25 return
          </CharString>
          <CharString index="109">
            165 callsubr
            -28 259 callgsubr
            23 -4 38 hhcurveto
            118 286 callgsubr
            return
          </CharString>
          <CharString index="110">
            96 41 143 rmoveto
            -105 58 -63 172 77 87 11 11 37 vhcurveto
            101 vlineto
            -10 -48 -65 -10 -80 hhcurveto
            -99 -21 26 46 hvcurveto
            51 vlineto
            28 11 18 42 vhcurveto
            64 hlineto
            -81 -109 100 -9 79 107 rlineto
            6 -7 2 -10 -15 vvcurveto
            -36 105 46 vlineto
            87 -37 35 -98 vhcurveto
            -149 hlineto
            -32 -12 11 24 hvcurveto
            8 309 callsubr
            33 vhcurveto
            217 153 130 99 -585 -99 337 -56 -99 hlineto
            -109 -53 -31 -91 hvcurveto
            -9 vlineto
            1 -45 16 -30 29 -16 rrcurveto
            -30 -19 -16 -25 -47 vvcurveto
            return
          </CharString>
          <CharString index="111">
            -123 -36 -51 -97 hvcurveto
            -92 vlineto
            -99 36 -49 123 return
          </CharString>
          <CharString index="112">
            hhcurveto
            -68 -12 29 40 hvcurveto
            154 vlineto
            29 8 20 return
          </CharString>
          <CharString index="113">
            rmoveto
            52 27 35 43 42 -27 34 -52 -51 -28 -34 -42 -43 28 -35 51 hvcurveto
            46 vmoveto
            -18 -12 12 20 17 12 13 18 18 12 -13 -17 -20 -12 -12 -18 hvcurveto
            endchar
          </CharString>
          <CharString index="114">
            hlineto
            -5 callsubr
            11 -366 -93 callsubr
            return
          </CharString>
          <CharString index="115">
            hlineto
            -119 77 -61 129 39 38 4 6 30 vhcurveto
            -50 -104 callgsubr
            return
          </CharString>
          <CharString index="116">
            -1 vhcurveto
            -6 -6 1 -2 hhcurveto
            -110 vlineto
            2 return
          </CharString>
          <CharString index="117">
            vlineto
            35 131 callgsubr
            return
          </CharString>
          <CharString index="118">
            -158 153 callsubr
            397 vlineto
            4 14 17 2 16 hhcurveto
            45 11 -17 -33 hvcurveto
            -188 -81 callgsubr
            -38 callsubr
            -260 -231 -52 callgsubr
            endchar
          </CharString>
          <CharString index="119">
            rmoveto
            -76 30 -38 66 -13 vhcurveto
            -108 -166 rlineto
            129 hlineto
            108 167 rlineto
            2 -104 118 269 -118 -76 hlineto
            -4 -15 -14 -3 -22 hhcurveto
            -44 -14 18 30 hvcurveto
            112 vlineto
            29 9 17 45 331 callsubr
            90 99 return
          </CharString>
          <CharString index="120">
            -74 hlineto
            -145 -72 -65 -100 hvcurveto
            -10 119 vlineto
            50 38 16 69 vhcurveto
            50 hlineto
            104 33 -29 -73 hvcurveto
            -20 -86 -99 86 -89 callgsubr
            -86 return
          </CharString>
          <CharString index="121">
            198 callgsubr
            39 79 vvcurveto
            return
          </CharString>
          <CharString index="122">
            44 callsubr
            84 vlineto
            -2 7 31 -5 37 hhcurveto
            97 56 36 105 hvcurveto
            return
          </CharString>
          <CharString index="123">
            221 269 hmoveto
            -30 callsubr
            -47 57 -108 282 callgsubr
            288 99 -710 -99 85 -245 vlineto
            -74 26 -49 63 -18 vhcurveto
            -117 -185 rlineto
            130 hlineto
            116 184 rlineto
            1 hlineto
            88 vmoveto
            -3 -8 -16 -3 -19 75 callgsubr
            256 101 vlineto
            return
          </CharString>
          <CharString index="124">
            449 687 rmoveto
            -308 -687 rlineto
            87 hlineto
            307 687 rlineto
            -366 -238 rmoveto
            -36 -10 33 49 48 10 33 36 35 10 -32 -49 -49 -10 -33 -35 hvcurveto
            -82 vmoveto
            98 37 69 95 95 -37 68 -98 -98 -36 -68 -95 -95 36 -69 98 hvcurveto
            337 -292 rmoveto
            -35 -10 33 49 48 10 33 35 35 10 -32 -49 -49 -10 -33 -35 hvcurveto
            1 -82 rmoveto
            98 36 69 95 95 -36 68 -98 -98 -37 -68 -95 -95 37 -69 98 hvcurveto
            return
          </CharString>
          <CharString index="125">
            -43 137 rlineto
            70 -21 -42 23 -50 hhcurveto
            -11 -11 -1 -2 -10 hvcurveto
            -98 vlineto
            1 5 5 0 5 hhcurveto
            22 9 -13 -30 11 hvcurveto
            29 -87 rlineto
            -18 hlineto
            -101 140 rlineto
            62 -45 -36 28 -60 hhcurveto
            -15 -13 -1 -2 -13 hvcurveto
            return
          </CharString>
          <CharString index="126">
            504 255 -64 callgsubr
            return
          </CharString>
          <CharString index="127">
            -403 vlineto
            -22 callgsubr
            36 callgsubr
            -15 hhcurveto
            return
          </CharString>
          <CharString index="128">
            67 callsubr
            42 8 -20 -29 vhcurveto
            294 callgsubr
            121 vlineto
            29 return
          </CharString>
          <CharString index="129">
            -116 70 -77 148 44 54 7 11 37 vhcurveto
            111 vlineto
            -14 -35 -42 -8 -48 52 callgsubr
          </CharString>
          <CharString index="130">
            hvcurveto
            -277 -99 278 -62 -50 hlineto
            -109 -54 -39 -97 hvcurveto
            -9 vlineto
            -96 58 -39 105 vhcurveto
            25 hlineto
            42 10 -20 -26 hvcurveto
            -22 vlineto
            -31 -15 -16 -44 -25 -24 5 2 -7 vhcurveto
            53 -116 -246 116 88 vlineto
            -1 6 31 -7 35 hhcurveto
            119 42 52 97 hvcurveto
            30 vlineto
            97 -54 45 -116 vhcurveto
            -25 hlineto
            -34 -10 13 24 hvcurveto
            3 vlineto
            25 9 13 35 vhcurveto
            168 164 87 99 hlineto
            endchar
          </CharString>
          <CharString index="131">
            71 callsubr
            37 -15 28 -50 -50 -14 -28 -37 -37 14 -29 50 hvcurveto
            return
          </CharString>
          <CharString index="132">
            -35 27 callgsubr
            return
          </CharString>
          <CharString index="133">
            -96 52 -57 116 117 51 57 96 vhcurveto
            return
          </CharString>
          <CharString index="134">
            16 13 -1 -4 10 hvcurveto
            -55 vlineto
            -122 93 143 callsubr
            118 566 87 288 callgsubr
            -37 -11 -17 -32 -7 vhcurveto
            20 -21 -35 9 -50 hhcurveto
            -56 91 158 callsubr
            -21 3 330 callgsubr
            -3 226 callgsubr
            -88 -49 vlineto
            return
          </CharString>
          <CharString index="135">
            -107 286 587 rmoveto
            -47 -23 -16 -28 -43 hvcurveto
            41 -121 -584 128 441 vlineto
            16 27 31 11 42 hhcurveto
            26 119 hlineto
            return
          </CharString>
          <CharString index="136">
            -41 -214 rlineto
            -27 -151 -10 -120 0 vvcurveto
            0 -7 119 -30 155 vhcurveto
            -42 211 rlineto
            -126 hlineto
            120 -584 rlineto
            47 hlineto
            -29 -149 rlineto
            124 hlineto
            144 733 rlineto
            return
          </CharString>
          <CharString index="137">
            16 16 vlineto
            123 54 42 callgsubr
            return
          </CharString>
          <CharString index="138">
            hlineto
            38 -26 -46 18 -62 hhcurveto
            -177 109 callgsubr
            -108 vlineto
            -90 callsubr
            93 0 callgsubr
            -2 5 vhcurveto
            37 hlineto
            38 15 -18 -34 hvcurveto
            return
          </CharString>
          <CharString index="139">
            -66 -104 callgsubr
            return
          </CharString>
          <CharString index="140">
            37 42 163 rmoveto
            -101 55 333 callgsubr
            55 72 101 vhcurveto
            128 vlineto
            97 -57 57 -105 -47 -23 -5 -7 -19 vhcurveto
            66 vlineto
            41 21 34 64 58 43 -9 -14 34 vhcurveto
            121 vlineto
            8 -21 -48 12 -69 hhcurveto
            -154 -55 -81 -98 hvcurveto
            251 -348 rmoveto
            -38 -12 -25 -50 -50 -12 26 37 vhcurveto
            159 vlineto
            4 7 25 8 32 hhcurveto
            39 21 -16 -41 hvcurveto
            endchar
          </CharString>
          <CharString index="141">
            169 callgsubr
            hlineto
            -91 callgsubr
            return
          </CharString>
          <CharString index="142">
            114 callsubr
            124 40 31 4 7 29 vhcurveto
            -70 119 566 85 vlineto
            -204 hmoveto
            -390 vlineto
            -8 -24 -30 -3 -31 hhcurveto
            -54 8 callgsubr
            endchar
          </CharString>
          <CharString index="143">
            -117 66 -40 116 33 28 4 5 15 vhcurveto
            -67 112 -42 callsubr
            return
          </CharString>
          <CharString index="144">
            rmoveto
            10 10 15 10 22 hhcurveto
            13 5 63 7 1 hvcurveto
            0 vlineto
            1 0 0 -1 vvcurveto
            -6 -11 -18 -7 hhcurveto
            -36 3 18 23 hvcurveto
            62 vlineto
            26 8 19 38 19 11 -5 -7 7 vhcurveto
            2 -3 2 -3 1 -3 rrcurveto
            0 vlineto
            -1 4 -2 2 -2 3 rrcurveto
            17 -11 -22 21 -38 hhcurveto
            -80 -1 -47 -41 -5 -70 rrcurveto
            -20 -5 -44 14 -84 41 -20 95 hvcurveto
            endchar
          </CharString>
          <CharString index="145">
            -67 24 584 rmoveto
            -108 168 vlineto
            -172 -395 rlineto
            -81 311 107 -172 vlineto
            170 397 rlineto
            80 vlineto
            return
          </CharString>
          <CharString index="146">
            -26 callgsubr
            127 callsubr
            -78 25 callsubr
            return
          </CharString>
          <CharString index="147">
            vlineto
            30 10 20 43 6 7 57 callsubr
            return
          </CharString>
          <CharString index="148">
            -6 30 hhcurveto
            109 49 51 97 hvcurveto
            return
          </CharString>
          <CharString index="149">
            97 -50 56 -114 -115 -49 -56 -97 return
          </CharString>
          <CharString index="150">
            -53 rmoveto
            -4 139 vlineto
            78 79 53 59 31 60 14 34 rlinecurve
            117 vlineto
            -4 373 rmoveto
            -520 -99 520 hlineto
            1 -78 rmoveto
            -394 -108 102 hlineto
            0 11 -17 -37 vvcurveto
            -58 vlineto
            -41 -26 -19 -47 -32 -24 4 6 -29 259 callgsubr
            24 -3 38 hhcurveto
            118 68 53 110 hvcurveto
            69 10 callsubr
            172 hlineto
            return
          </CharString>
          <CharString index="151">
            -117 281 callsubr
            61 -39 109 vhcurveto
            9 hlineto
            39 -2 8 -19 -25 vvcurveto
            -26 vlineto
            -30 -11 -17 -44 -25 -22 3 2 -8 vhcurveto
            56 227 callsubr
            return
          </CharString>
          <CharString index="152">
            4 callgsubr
            -53 -49 8 9 -39 vhcurveto
            -108 vlineto
            return
          </CharString>
          <CharString index="153">
            -99 776 -74 -278 -109 60 hlineto
            0 10 -16 -37 vvcurveto
            -111 vlineto
            -41 -26 -18 -46 -20 -22 4 5 -20 vhcurveto
            4 16 2 18 19 vvcurveto
            120 vlineto
            108 -57 56 -126 -139 69 callsubr
            55 -59 132 41 33 6 11 27 vhcurveto
            -11 37 52 -12 53 hhcurveto
            118 286 callgsubr
            return
          </CharString>
          <CharString index="154">
            97 callgsubr
            -6 -14 -33 9 callsubr
            return
          </CharString>
          <CharString index="155">
            136 callsubr
            117 callgsubr
            return
          </CharString>
          <CharString index="156">
            124 callgsubr
            83 callsubr
            return
          </CharString>
          <CharString index="157">
            70 callsubr
            hvcurveto
            return
          </CharString>
          <CharString index="158">
            795 rmoveto
            1 9 9 0 8 hhcurveto
            31 20 -13 -28 22 hvcurveto
            68 -90 rlineto
            115 239 callgsubr
            -36 28 -59 hhcurveto
            -16 195 callgsubr
            214 -98 rmoveto
            1 5 6 0 4 hhcurveto
            23 9 -13 -30 10 hvcurveto
            30 -87 rlineto
            101 hlineto
            -42 137 rlineto
            70 -22 -41 23 -51 hhcurveto
            -11 -10 -1 -2 -11 hvcurveto
            return
          </CharString>
          <CharString index="159">
            hhcurveto
            -82 -33 31 57 hvcurveto
            50 vlineto
            -3 16 18 -2 17 hhcurveto
            109 302 callgsubr
            -8 -12 callgsubr
            260 -74 hlineto
            1 -7 -26 5 -32 175 callgsubr
            212 -133 rmoveto
            -1 -4 -19 -5 -28 264 callgsubr
            6 vhcurveto
            endchar
          </CharString>
          <CharString index="160">
            12 50 549 rmoveto
            14 34 44 11 57 hhcurveto
            64 14 -23 -34 hvcurveto
            -24 vlineto
            -46 -8 -21 -34 -25 vhcurveto
            -94 -77 rlineto
            -51 -38 -39 -45 -83 vvcurveto
            -158 349 113 -219 31 vlineto
            49 8 14 55 44 vhcurveto
            86 69 51 37 24 49 1 67 rlinecurve
            58 vlineto
            99 -61 62 -145 -67 -48 -14 -7 -21 vhcurveto
            endchar
          </CharString>
          <CharString index="161">
            156 callgsubr
            6 -19 -28 vhcurveto
            return
          </CharString>
          <CharString index="162">
            hlineto
            -26 callsubr
            58 99 -455 72 callsubr
            return
          </CharString>
          <CharString index="163">
            rmoveto
            -97 36 -51 116 34 20 5 2 5 vhcurveto
            -114 83 callsubr
            return
          </CharString>
          <CharString index="164">
            -1 -1 2 vhcurveto
            101 vlineto
            -2 -13 3 return
          </CharString>
          <CharString index="165">
            17 50 687 rmoveto
            -384 vlineto
            6 83 27 4 40 hhcurveto
            53 16 -17 -40 hvcurveto
            -88 vlineto
            -35 -20 -23 -63 -47 -45 10 16 -49 vhcurveto
            -119 vlineto
            -14 40 40 -9 66 hhcurveto
            144 62 63 98 hvcurveto
            119 vlineto
            100 -58 52 -101 -25 -16 0 -2 -21 vhcurveto
            144 200 119 vlineto
            endchar
          </CharString>
          <CharString index="166">
            vvcurveto
            100 callgsubr
          </CharString>
          <CharString index="167">
            hhcurveto
            184 callgsubr
            hvcurveto
            -95 return
          </CharString>
          <CharString index="168">
            -88 47 -55 116 115 47 55 88 vhcurveto
            205 callsubr
            return
          </CharString>
          <CharString index="169">
            rlineto
            12 hlineto
            25 13 -9 -18 -18 -15 -9 -22 -14 -15 2 3 -8 hvcurveto
            -58 vlineto
            -4 17 18 -2 16 hhcurveto
            58 40 30 52 47 -36 18 -25 2 hvcurveto
            return
          </CharString>
          <CharString index="170">
            223 223 rmoveto
            -47 -16 19 30 hvcurveto
            294 return
          </CharString>
          <CharString index="171">
            -3 17 -3 -53 -109 rcurveline
            121 hlineto
            43 102 rlineto
            4 4 1 4 hhcurveto
            43 -103 178 callsubr
            -62 128 rlineto
            46 26 22 43 62 vvcurveto
            return
          </CharString>
          <CharString index="172">
            -73 27 -45 59 -17 vhcurveto
            -103 -142 rlineto
            132 hlineto
            97 141 rlineto
            1 2 1 0 1 hhcurveto
            return
          </CharString>
          <CharString index="173">
            20 -6 11 vhcurveto
            90 -311 hlineto
            -36 -6 -24 -23 -67 hhcurveto
            -78 316 callsubr
            78 3 return
          </CharString>
          <CharString index="174">
            5 callsubr
            41 return
          </CharString>
          <CharString index="175">
            -186 52 571 rmoveto
            -571 128 571 vlineto
            return
          </CharString>
          <CharString index="176">
            -48 -59 -105 vhcurveto
            -120 vlineto
            -105 return
          </CharString>
          <CharString index="177">
            -29 -36 -37 14 -29 51 return
          </CharString>
          <CharString index="178">
            146 callgsubr
            37 return
          </CharString>
          <CharString index="179">
            -99 279 hlineto
            -105 callgsubr
            -105 callsubr
            return
          </CharString>
          <CharString index="180">
            230 callgsubr
            -56 -7 -63 hhcurveto
            -62 -33 17 50 hvcurveto
            57 vlineto
            28 9 18 42 vhcurveto
            62 hlineto
            109 45 52 75 hvcurveto
            185 81 99 -549 -99 vlineto
            256 -223 rmoveto
            -42 -13 19 29 hvcurveto
            90 vlineto
            132 -130 rlineto
            -5 -8 -10 -3 -14 hhcurveto
            endchar
          </CharString>
          <CharString index="181">
            rmoveto
            -68 -11 25 41 hvcurveto
            75 vlineto
            132 -132 rlineto
            -6 -12 -17 -3 -24 hhcurveto
            78 77 rmoveto
            -151 149 rlineto
            151 hlineto
            endchar
          </CharString>
          <CharString index="182">
            185 callsubr
            42 vhcurveto
            return
          </CharString>
          <CharString index="183">
            -19 -35 vvcurveto
            -49 88 callsubr
            return
          </CharString>
          <CharString index="184">
            -99 261 hlineto
            0 11 -16 -38 vvcurveto
            -75 vlineto
            -28 -7 -21 -44 -1 vhcurveto
            -68 -108 61 hlineto
            47 -1 11 -25 -32 vvcurveto
            -61 vlineto
            -41 -29 -16 -51 -41 -38 6 9 -36 vhcurveto
            -109 vlineto
            -8 43 33 -6 41 hhcurveto
            131 65 55 108 hvcurveto
            endchar
          </CharString>
          <CharString index="185">
            140 callsubr
            -44 vlineto
            -46 12 -32 31 -18 vhcurveto
            113 callgsubr
          </CharString>
          <CharString index="186">
            vlineto
            -74 21 -35 66 -51 vhcurveto
            -129 -128 132 -19 return
          </CharString>
          <CharString index="187">
            hlineto
            -135 95 -74 158 69 50 12 13 40 vhcurveto
            -29 25 41 -16 63 hhcurveto
            33 27 5 4 13 hvcurveto
            -66 vlineto
            6 166 rmoveto
            -4 -11 -22 -4 -26 hhcurveto
            -45 -20 248 callgsubr
          </CharString>
          <CharString index="188">
            110 -157 vlineto
            -33 -7 -12 -33 vhcurveto
            -12 -109 hlineto
            -1 7 8 -1 6 hhcurveto
            114 35 55 94 hvcurveto
            164 77 99 return
          </CharString>
          <CharString index="189">
            -116 -47 -54 -88 hvcurveto
            135 callsubr
            return
          </CharString>
          <CharString index="190">
            116 -42 callsubr
            return
          </CharString>
          <CharString index="191">
            rmoveto
            87 callsubr
            return
          </CharString>
          <CharString index="192">
            rmoveto
            -69 callgsubr
          </CharString>
          <CharString index="193">
            vlineto
            140 callgsubr
            return
          </CharString>
          <CharString index="194">
            -105 callsubr
            56 38 14 27 24 hvcurveto
            return
          </CharString>
          <CharString index="195">
            89 callsubr
            -15 -15 -33 -52 vvcurveto
            return
          </CharString>
          <CharString index="196">
            vlineto
            -46 12 -31 31 -19 vhcurveto
            -34 return
          </CharString>
          <CharString index="197">
            122 callgsubr
            -23 vhcurveto
            endchar
          </CharString>
          <CharString index="198">
            223 callsubr
            -10 262 callsubr
          </CharString>
          <CharString index="199">
            rmoveto
            152 callgsubr
            5 vhcurveto
            -65 115 389 vlineto
            2 6 26 4 20 hhcurveto
            return
          </CharString>
          <CharString index="200">
            231 vlineto
            113 47 62 98 hvcurveto
            374 vlineto
            99 -60 54 -107 vhcurveto
            40 -518 330 callsubr
            return
          </CharString>
          <CharString index="201">
            173 callsubr
            77 144 callgsubr
            return
          </CharString>
          <CharString index="202">
            rmoveto
            -28 -7 -18 -42 -41 -8 19 27 vhcurveto
            28 186 callgsubr
            return
          </CharString>
          <CharString index="203">
            vlineto
            42 callsubr
            return
          </CharString>
          <CharString index="204">
            328 callsubr
            -7 19 0 vhcurveto
            259 -74 hlineto
            1 -6 -27 5 -32 hhcurveto
            -115 -32 -55 -97 hvcurveto
            212 1 callsubr
            return
          </CharString>
          <CharString index="205">
            -113 795 rmoveto
            1 9 9 0 8 hhcurveto
            31 22 -11 -30 20 hvcurveto
            62 -90 rlineto
            -83 -99 86 336 callgsubr
            -98 148 rlineto
            65 -42 -42 17 -59 hhcurveto
            -16 195 callgsubr
            return
          </CharString>
          <CharString index="206">
            155 callsubr
            -29 vlineto
            -97 57 -38 105 vhcurveto
            4 callgsubr
            return
          </CharString>
          <CharString index="207">
            54 18 29 40 40 -18 29 -54 -54 -18 -29 -40 -40 18 -29 54 hvcurveto
            endchar
          </CharString>
          <CharString index="208">
            81 callgsubr
            4 -26 -33 hvcurveto
            -49 216 callgsubr
            return
          </CharString>
          <CharString index="209">
            rmoveto
            -35 -21 -15 -24 -20 vhcurveto
            -26 20 -19 15 35 vvcurveto
            42 91 callgsubr
          </CharString>
          <CharString index="210">
            rmoveto
            39 12 22 28 29 -12 22 -39 -39 -11 -22 -29 -28 11 -22 39 hvcurveto
            return
          </CharString>
          <CharString index="211">
            35 131 callgsubr
            99 211 callgsubr
            return
          </CharString>
          <CharString index="212">
            vlineto
            -89 -66 callgsubr
            89 vhcurveto
            return
          </CharString>
          <CharString index="213">
            vlineto
            97 -47 53 -110 -111 -50 -53 -97 vhcurveto
            return
          </CharString>
          <CharString index="214">
            rmoveto
            -110 hlineto
            54 296 rlineto
            return
          </CharString>
          <CharString index="215">
            390 -64 callgsubr
            return
          </CharString>
          <CharString index="216">
            rmoveto
            -4 -10 -22 -4 return
          </CharString>
          <CharString index="217">
            32 28 7 2 return
          </CharString>
          <CharString index="218">
            43 332 687 rmoveto
            -42 -126 -30 -96 -15 -56 -13 -56 rlinecurve
            -12 56 -14 55 -31 95 -43 128 rcurveline
            -131 hlineto
            165 -469 rlineto
            -218 129 218 vlineto
            165 469 rlineto
            return
          </CharString>
          <CharString index="219">
            110 callgsubr
            -16 -20 -1 -22 -96 callsubr
            13 20 41 22 18 -5 -3 5 vhcurveto
            -373 return
          </CharString>
          <CharString index="220">
            28 441 120 rmoveto
            111 -66 456 -167 vlineto
            -198 -450 rlineto
            -117 245 -120 120 120 vlineto
            -255 111 rmoveto
            140 326 rlineto
            -326 vlineto
            endchar
          </CharString>
          <CharString index="221">
            140 callsubr
            -50 89 callsubr
            -16 -15 -32 -52 vvcurveto
            -51 vlineto
            -95 65 -61 return
          </CharString>
          <CharString index="222">
            -42 -9 14 25 hvcurveto
            5 vlineto
            22 1 10 12 41 hhcurveto
            162 164 return
          </CharString>
          <CharString index="223">
            -99 77 -299 vlineto
            307 callsubr
            return
          </CharString>
          <CharString index="224">
            rmoveto
            -58 -19 26 38 hvcurveto
            78 vlineto
            145 -135 rlineto
            -3 -17 -19 -4 -32 hhcurveto
            240 1 callgsubr
          </CharString>
          <CharString index="225">
            23 -51 hhcurveto
            -11 -10 -1 -2 -11 hvcurveto
            -98 vlineto
            1 5 6 0 4 hhcurveto
            22 9 -13 -30 11 hvcurveto
            return
          </CharString>
          <CharString index="226">
            rmoveto
            79 -36 48 -75 15 vhcurveto
            63 186 99 return
          </CharString>
          <CharString index="227">
            10 callgsubr
            128 return
          </CharString>
          <CharString index="228">
            hlineto
            -97 -45 -56 -77 hvcurveto
            -16 vlineto
            -40 11 -27 27 -15 vhcurveto
            -29 -16 -14 -29 -45 vvcurveto
            -17 vlineto
            -80 54 -49 131 127 55 40 114 2 vhcurveto
            25 1 19 2 14 4 rrcurveto
            return
          </CharString>
          <CharString index="229">
            494 rmoveto
            178 callgsubr
            -116 -61 -41 -116 hvcurveto
            return
          </CharString>
          <CharString index="230">
            -22 callsubr
            38 vhcurveto
            return
          </CharString>
          <CharString index="231">
            hvcurveto
            30 -27 -42 14 -55 hhcurveto
            -184 109 callgsubr
            -95 vlineto
            -90 callsubr
            84 vlineto
            27 -6 24 -2 5 vhcurveto
            44 hlineto
            29 15 return
          </CharString>
          <CharString index="232">
            14 callgsubr
            -120 -123 hlineto
            return
          </CharString>
          <CharString index="233">
            rmoveto
            -45 -19 20 29 hvcurveto
            143 vlineto
            133 -119 rlineto
            -61 vlineto
            -7 -22 -18 -5 -29 hhcurveto
            return
          </CharString>
          <CharString index="234">
            -28 -3 -33 hhcurveto
            return
          </CharString>
          <CharString index="235">
            -99 270 vlineto
            -37 callsubr
            return
          </CharString>
          <CharString index="236">
            -64 44 rmoveto
            53 19 28 40 41 -19 29 -53 -55 -17 -29 -41 -40 17 -28 55 hvcurveto
            endchar
          </CharString>
          <CharString index="237">
            -46 -51 -97 hvcurveto
            return
          </CharString>
          <CharString index="238">
            -135 70 -53 147 59 36 4 7 43 vhcurveto
            107 vlineto
            -7 -43 -35 -4 -60 hhcurveto
            -66 -35 22 61 hvcurveto
            104 vlineto
            -4 18 29 -3 22 hhcurveto
            42 36 12 24 20 hvcurveto
            return
          </CharString>
          <CharString index="239">
            rmoveto
            109 vlineto
            -13 -35 -35 -10 -52 hhcurveto
            -65 -32 189 callgsubr
            return
          </CharString>
          <CharString index="240">
            rmoveto
            140 -135 rlineto
            -14 -11 -20 -8 -32 hhcurveto
            -58 -19 25 45 hvcurveto
            153 25 rmoveto
            -139 134 rlineto
            15 11 20 8 32 hhcurveto
            57 19 -26 -45 hvcurveto
            endchar
          </CharString>
          <CharString index="241">
            -4 -27 hhcurveto
            -44 -21 -19 callsubr
            return
          </CharString>
          <CharString index="242">
            -81 154 callsubr
            return
          </CharString>
          <CharString index="243">
            vlineto
            -95 35 166 callgsubr
            return
          </CharString>
          <CharString index="244">
            220 callsubr
            17 22 return
          </CharString>
          <CharString index="245">
            hhcurveto
            113 44 54 97 hvcurveto
            return
          </CharString>
          <CharString index="246">
            2 -6 -28 6 -44 hhcurveto
            return
          </CharString>
          <CharString index="247">
            0 -7 -19 -35 vvcurveto
            return
          </CharString>
          <CharString index="248">
            vlineto
            -99 36 -49 123 24 20 2 3 18 vhcurveto
            -66 20 54 -46 101 hhcurveto
            59 42 9 12 36 hvcurveto
            292 callgsubr
            return
          </CharString>
          <CharString index="249">
            -46 -113 rlineto
            61 hlineto
            74 113 rlineto
            return
          </CharString>
          <CharString index="250">
            138 callgsubr
            21 vhcurveto
            -95 return
          </CharString>
          <CharString index="251">
            rmoveto
            -62 155 callgsubr
            return
          </CharString>
          <CharString index="252">
            -56 -57 -97 hvcurveto
            return
          </CharString>
          <CharString index="253">
            hhcurveto
            90 callgsubr
            hvcurveto
            177 callgsubr
            return
          </CharString>
          <CharString index="254">
            566 157 callgsubr
            return
          </CharString>
          <CharString index="255">
            53 315 687 rmoveto
            -128 -337 134 -350 rlineto
            141 hlineto
            -142 352 131 335 rlineto
            -399 hmoveto
            -687 127 687 vlineto
            return
          </CharString>
          <CharString index="256">
            -99 -286 -67 hlineto
            1 5 26 5 33 hhcurveto
            105 46 -51 -97 hvcurveto
            -147 vlineto
            -94 return
          </CharString>
          <CharString index="257">
            210 callsubr
            -44 vlineto
            -46 320 callsubr
            return
          </CharString>
          <CharString index="258">
            7 275 584 rmoveto
            -94 -272 101 -312 rlineto
            134 hlineto
            -110 306 97 278 rlineto
            -351 155 rmoveto
            -739 124 739 vlineto
            return
          </CharString>
          <CharString index="259">
            -13 -15 -7 -20 -26 vvcurveto
            -130 vlineto
            311 callsubr
            -26 vlineto
            -111 64 -47 165 169 56 51 118 vhcurveto
            return
          </CharString>
          <CharString index="260">
            -86 callsubr
            116 return
          </CharString>
          <CharString index="261">
            105 callsubr
            123 return
          </CharString>
          <CharString index="262">
            -109 -53 -39 -97 hvcurveto
            return
          </CharString>
          <CharString index="263">
            -33 rmoveto
            -47 -8 20 30 hvcurveto
            51 vlineto
            31 17 13 34 2 vhcurveto
            1 0 0 1 hhcurveto
            22 1 22 5 13 6 rrcurveto
            -109 vlineto
            -30 -9 -20 -46 vhcurveto
            return
          </CharString>
          <CharString index="264">
            rmoveto
            -58 155 callgsubr
            146 -119 rlineto
            -21 -10 -21 -10 -38 hhcurveto
            return
          </CharString>
          <CharString index="265">
            hlineto
            42 callsubr
            return
          </CharString>
          <CharString index="266">
            -19 -48 vhcurveto
            -155 vlineto
            -48 return
          </CharString>
          <CharString index="267">
            -99 296 -59 -58 vlineto
            215 callsubr
            -96 58 -56 130 return
          </CharString>
          <CharString index="268">
            45 callsubr
            -10 44 42 -7 55 139 callgsubr
            return
          </CharString>
          <CharString index="269">
            107 callsubr
            endchar
          </CharString>
          <CharString index="270">
            vlineto
            -102 66 -68 132 61 45 9 12 33 vhcurveto
            275 callgsubr
            -6 19 0 vhcurveto
            98 hlineto
            return
          </CharString>
          <CharString index="271">
            258 callsubr
            -15 -29 -37 -36 308 callsubr
            return
          </CharString>
          <CharString index="272">
            -37 vvcurveto
            -113 305 callgsubr
            7 return
          </CharString>
          <CharString index="273">
            86 callsubr
            47 99 return
          </CharString>
          <CharString index="274">
            -94 callgsubr
            87 99 return
          </CharString>
          <CharString index="275">
            7 12 1 1 9 vhcurveto
            return
          </CharString>
          <CharString index="276">
            -9 vlineto
            -96 57 -39 105 vhcurveto
            -1 100 rmoveto
            -34 -9 13 25 hvcurveto
            3 vlineto
            25 10 12 34 vhcurveto
            169 164 91 -242 hlineto
            endchar
          </CharString>
          <CharString index="277">
            -3 -19 hhcurveto
            -45 return
          </CharString>
          <CharString index="278">
            265 callsubr
            212 -59 5 callgsubr
            return
          </CharString>
          <CharString index="279">
            -69 -44 hlineto
            -117 196 callgsubr
            return
          </CharString>
          <CharString index="280">
            rmoveto
            -28 -8 230 callsubr
            19 27 vhcurveto
            return
          </CharString>
          <CharString index="281">
            -78 -236 hlineto
            -28 callgsubr
            return
          </CharString>
          <CharString index="282">
            rmoveto
            -42 callsubr
            return
          </CharString>
          <CharString index="283">
            243 callgsubr
            -36 return
          </CharString>
          <CharString index="284">
            -99 282 -62 -45 239 callsubr
            return
          </CharString>
          <CharString index="285">
            rlineto
            121 hlineto
            return
          </CharString>
          <CharString index="286">
            162 -58 callsubr
            return
          </CharString>
          <CharString index="287">
            -105 60 -53 112 53 46 9 0 vhcurveto
            107 vlineto
            0 -49 -9 -48 -33 -25 9 42 41 25 8 32 48 49 -9 0 vhcurveto
            return
          </CharString>
          <CharString index="288">
            hhcurveto
            241 callsubr
            hvcurveto
            438 vmoveto
            -334 vlineto
            -2 -4 -21 -7 -27 75 callgsubr
            294 vlineto
            endchar
          </CharString>
          <CharString index="289">
            60 vvcurveto
            -114 -8 callgsubr
            endchar
          </CharString>
          <CharString index="290">
            79 callsubr
            83 83 return
          </CharString>
          <CharString index="291">
            -9 callsubr
            -38 return
          </CharString>
          <CharString index="292">
            vlineto
            28 7 18 return
          </CharString>
          <CharString index="293">
            -18 193 callsubr
            return
          </CharString>
          <CharString index="294">
            hlineto
            193 callgsubr
            return
          </CharString>
          <CharString index="295">
            -99 91 hlineto
            114 callsubr
            return
          </CharString>
          <CharString index="296">
            226 callsubr
            -493 -99 285 143 callgsubr
            return
          </CharString>
          <CharString index="297">
            -110 141 687 rmoveto
            -127 -94 rlineto
            -140 vlineto
            114 84 rlineto
            -537 342 callgsubr
          </CharString>
          <CharString index="298">
            -42 10 callgsubr
            331 callgsubr
            580 vlineto
            return
          </CharString>
          <CharString index="299">
            441 rmoveto
            125 90 -125 vlineto
            return
          </CharString>
          <CharString index="300">
            209 callgsubr
            -4 return
          </CharString>
          <CharString index="301">
            hlineto
            -42 -9 19 28 hvcurveto
            return
          </CharString>
          <CharString index="302">
            vhcurveto
            110 callgsubr
            return
          </CharString>
          <CharString index="303">
            3 -8 5 -25 -31 vvcurveto
            -108 335 callgsubr
            126 -22 callsubr
            37 vhcurveto
            return
          </CharString>
          <CharString index="304">
            -99 268 -101 -47 hlineto
            -116 -47 -54 -89 hvcurveto
            -53 vlineto
            -88 47 -56 115 116 46 56 89 vhcurveto
            95 return
          </CharString>
          <CharString index="305">
            vlineto
            -92 42 -34 75 -10 vhcurveto
            -116 -132 rlineto
            133 hlineto
            120 138 rlineto
            2 1 1 1 hhcurveto
            return
          </CharString>
          <CharString index="306">
            rmoveto
            -4 -11 -21 134 callsubr
            return
          </CharString>
          <CharString index="307">
            -252 100 rmoveto
            130 vlineto
            159 -169 rlineto
            -12 -17 -28 -10 -42 211 callsubr
            endchar
          </CharString>
          <CharString index="308">
            323 5 callgsubr
            return
          </CharString>
          <CharString index="309">
            -38 -8 19 28 vhcurveto
            return
          </CharString>
          <CharString index="310">
            -99 -51 -61 -140 -37 -27 7 7 -23 vhcurveto
            105 vlineto
            -6 24 23 -6 38 hhcurveto
            58 17 25 38 hvcurveto
            return
          </CharString>
          <CharString index="311">
            -38 hhcurveto
            -101 -43 -54 -94 hvcurveto
            -156 vlineto
            -99 58 -62 122 123 59 63 99 vhcurveto
            153 vlineto
            return
          </CharString>
          <CharString index="312">
            141 47 vlineto
            34 228 callgsubr
            -119 78 219 callsubr
            27 vhcurveto
            -106 return
          </CharString>
          <CharString index="313">
            10 vlineto
            99 -55 35 -118 vhcurveto
            -28 hlineto
            return
          </CharString>
          <CharString index="314">
            vlineto
            24 10 16 34 vhcurveto
            163 164 return
          </CharString>
          <CharString index="315">
            5 2 6 vhcurveto
            -114 115 566 return
          </CharString>
          <CharString index="316">
            vlineto
            260 callsubr
            return
          </CharString>
          <CharString index="317">
            hlineto
            140 callsubr
            return
          </CharString>
          <CharString index="318">
            hhcurveto
            -59 -13 25 36 hvcurveto
            return
          </CharString>
          <CharString index="319">
            111 vlineto
            -14 return
          </CharString>
          <CharString index="320">
            -115 170 callgsubr
            -99 vlineto
            -88 47 -55 115 116 47 55 88 vhcurveto
            141 89 vlineto
            return
          </CharString>
          <CharString index="321">
            223 156 rmoveto
            -58 -18 25 45 hvcurveto
            80 vlineto
            145 -120 rlineto
            -20 -10 -22 -10 -37 hhcurveto
            return
          </CharString>
          <CharString index="322">
            24 callgsubr
            -33 vlineto
            return
          </CharString>
          <CharString index="323">
            -58 rlineto
            -92 vlineto
            82 60 rlineto
            -360 82 450 vlineto
            return
          </CharString>
          <CharString index="324">
            hhcurveto
            259 callsubr
            hvcurveto
            -95 return
          </CharString>
          <CharString index="325">
            -291 vlineto
            -97 44 -63 138 return
          </CharString>
          <CharString index="326">
            -61 129 43 36 8 12 return
          </CharString>
          <CharString index="327">
            -145 rlineto
            44 hlineto
            return
          </CharString>
          <CharString index="328">
            -15 vvcurveto
            150 callgsubr
            return
          </CharString>
          <CharString index="329">
            vlineto
            -32 -11 -23 -58 -58 -11 24 32 vhcurveto
            150 vlineto
            32 11 13 41 vhcurveto
            159 166 return
          </CharString>
          <CharString index="330">
            60 33 vvcurveto
            19 return
          </CharString>
          <CharString index="331">
            -178 -94 callsubr
            return
          </CharString>
          <CharString index="332">
            0 -50 9 -63 vhcurveto
            -99 vlineto
            63 50 8 0 hvcurveto
            return
          </CharString>
          <CharString index="333">
            vlineto
            29 235 callgsubr
            163 176 90 99 return
          </CharString>
          <CharString index="334">
            -116 -241 116 return
          </CharString>
          <CharString index="335">
            241 callsubr
            vhcurveto
            return
          </CharString>
          <CharString index="336">
            0 vhcurveto
            113 hlineto
            return
          </CharString>
          <CharString index="337">
            -18 -41 -42 -7 return
          </CharString>
          <CharString index="338">
            vlineto
            -96 44 -55 106 304 callgsubr
            vlineto
            -44 -1 -16 12 35 vvcurveto
            return
          </CharString>
          <CharString index="339">
            vlineto
            -122 93 85 callgsubr
            return
          </CharString>
          <CharString index="340">
            4 -36 hhcurveto
            -121 -71 -56 -112 hvcurveto
            -183 303 callgsubr
            return
          </CharString>
          <CharString index="341">
            263 callgsubr
            11 19 42 vhcurveto
            return
          </CharString>
          <CharString index="342">
            296 callgsubr
            -99 callsubr
            99 return
          </CharString>
          <CharString index="343">
            297 callsubr
            15 24 49 vhcurveto
            9 hlineto
            return
          </CharString>
          <CharString index="344">
            -63 vlineto
            -77 -15 -34 -49 -78 vvcurveto
            -212 vlineto
            return
          </CharString>
          <CharString index="345">
            -27 -38 -56 -94 -52 vvcurveto
            -32 16 -18 37 vhcurveto
            return
          </CharString>
          <CharString index="346">
            hlineto
            155 callsubr
            return
          </CharString>
          <CharString index="347">
            286 callsubr
            20 hhcurveto
            43 return
          </CharString>
          <CharString index="348">
            39 27 7 3 5 return
          </CharString>
          <CharString index="349">
            100 rmoveto
            125 return
          </CharString>
          <CharString index="350">
            -72 -21 vlineto
            -118 -57 -58 -104 hvcurveto
            -165 vlineto
            123 callgsubr
            return
          </CharString>
          <CharString index="351">
            rmoveto
            54 18 29 39 41 -18 29 -54 -54 -18 -29 -41 -39 18 -29 54 hvcurveto
            return
          </CharString>
          <CharString index="352">
            hvcurveto
            75 214 vlineto
            0 7 324 callsubr
            return
          </CharString>
          <CharString index="353">
            -66 -42 hlineto
            -118 -55 -41 -80 hvcurveto
            -10 vlineto
            -102 64 -21 106 vhcurveto
            25 hlineto
            return
          </CharString>
          <CharString index="354">
            hlineto
            -55 callgsubr
            90 vlineto
            endchar
          </CharString>
          <CharString index="355">
            rmoveto
            200 99 -200 vlineto
            -28 -7 -20 -43 -42 -7 20 28 vhcurveto
            endchar
          </CharString>
          <CharString index="356">
            32 vlineto
            22 -5 19 -11 15 vhcurveto
            return
          </CharString>
          <CharString index="357">
            vlineto
            332 callgsubr
            return
          </CharString>
          <CharString index="358">
            -56 -155 hvcurveto
            endchar
          </CharString>
          <CharString index="359">
            -55 113 113 44 55 97 vhcurveto
            34 vlineto
            27 -6 18 -2 5 vhcurveto
            return
          </CharString>
          <CharString index="360">
            -26 -146 rlineto
            44 hlineto
            17 23 220 callgsubr
            -11 11 -22 vhcurveto
            return
          </CharString>
          <CharString index="361">
            -16 27 -5 33 5 rrcurveto
            9 8 -40 1 3 hvcurveto
            101 -15 10 310 return
          </CharString>
          <CharString index="362">
            133 -187 hlineto
            -133 119 rlineto
            return
          </CharString>
          <CharString index="363">
            168 callgsubr
            -110 vlineto
            -105 return
          </CharString>
          <CharString index="364">
            hhcurveto
            -65 -33 19 47 hvcurveto
            69 vlineto
            -4 16 return
          </CharString>
          <CharString index="365">
            227 callgsubr
            -51 return
          </CharString>
          <CharString index="366">
            37 33 4 5 21 return
          </CharString>
          <CharString index="367">
            0 -11 -19 -35 vvcurveto
            return
          </CharString>
          <CharString index="368">
            -43 -9 18 30 return
          </CharString>
          <CharString index="369">
            11 -22 vhcurveto
            endchar
          </CharString>
          <CharString index="370">
            -50 callsubr
            177 269 callsubr
            return
          </CharString>
          <CharString index="371">
            -53 39 -86 -30 -24 -8 0 vhcurveto
            -89 vlineto
            0 13 8 22 28 17 return
          </CharString>
          <CharString index="372">
            -72 -21 hlineto
            -102 -57 -44 -79 -13 hvcurveto
            -97 hlineto
            -5 callsubr
            return
          </CharString>
          <CharString index="373">
            51 566 rmoveto
            -89 callgsubr
            -290 -99 vlineto
            return
          </CharString>
          <CharString index="374">
            183 291 callgsubr
            return
          </CharString>
          <CharString index="375">
            vlineto
            -97 43 -54 117 33 27 5 4 13 vhcurveto
            -66 vlineto
            endchar
          </CharString>
          <CharString index="376">
            vlineto
            33 17 23 return
          </CharString>
          <CharString index="377">
            1 9 8 0 9 hhcurveto
            30 21 -13 -28 22 hvcurveto
            67 -90 rlineto
            return
          </CharString>
          <CharString index="378">
            -99 169 323 callsubr
            -12 return
          </CharString>
          <CharString index="379">
            -99 316 -69 -56 hlineto
            -124 -59 -40 -109 hvcurveto
            180 return
          </CharString>
          <CharString index="380">
            497 rmoveto
            51 callgsubr
            -38 -30 -6 -12 -24 hvcurveto
            return
          </CharString>
          <CharString index="381">
            333 88 callgsubr
            return
          </CharString>
          <CharString index="382">
            -6 -37 -50 -7 -46 hhcurveto
            -52 -33 14 41 hvcurveto
            49 vlineto
            33 21 return
          </CharString>
          <CharString index="383">
            hvcurveto
            -9 vlineto
            -37 -31 -6 -52 -53 -79 9 10 -44 vhcurveto
            endchar
          </CharString>
          <CharString index="384">
            -25 -31 vvcurveto
            -108 -9 callsubr
            return
          </CharString>
          <CharString index="385">
            21 24 66 37 34 -9 -2 7 vhcurveto
            return
          </CharString>
          <CharString index="386">
            80 hlineto
            46 11 -23 -30 hvcurveto
            return
          </CharString>
          <CharString index="387">
            hhcurveto
            -19 -30 -3 -5 -19 hvcurveto
            return
          </CharString>
          <CharString index="388">
            -53 -39 -97 hvcurveto
            -9 vlineto
            -96 return
          </CharString>
          <CharString index="389">
            -1 -10 -1 -10 -11 vvcurveto
            return
          </CharString>
          <CharString index="390">
            -566 -94 callgsubr
            return
          </CharString>
          <CharString index="391">
            hlineto
            -132 -50 -57 return
          </CharString>
          <CharString index="392">
            115 47 55 88 return
          </CharString>
          <CharString index="393">
            2 6 23 4 return
          </CharString>
          <CharString index="394">
            vlineto
            -107 38 -56 135 vhcurveto
            102 vlineto
            -45 -10 20 33 hvcurveto
            return
          </CharString>
          <CharString index="395">
            vlineto
            3 0 3 3 vvcurveto
            -3 callsubr
            return
          </CharString>
          <CharString index="396">
            215 500 rmoveto
            -119 -50 -43 -98 hvcurveto
            -157 vlineto
            return
          </CharString>
          <CharString index="397">
            hvcurveto
            -44 vlineto
            -20 -5 -16 -33 vhcurveto
            -48 -76 48 hlineto
            33 5 return
          </CharString>
          <CharString index="398">
            99 -467 -99 262 -69 vlineto
            3 -13 -28 6 -32 hhcurveto
            return
          </CharString>
          <CharString index="399">
            -38 -8 18 28 vhcurveto
            38 123 callsubr
            endchar
          </CharString>
          <CharString index="400">
            -57 -153 hvcurveto
            endchar
          </CharString>
          <CharString index="401">
            -43 -1 -17 11 36 vvcurveto
            168 vlineto
            40 24 23 50 return
          </CharString>
          <CharString index="402">
            258 callgsubr
            -131 vlineto
            return
          </CharString>
          <CharString index="403">
            -152 318 665 rmoveto
            -356 -99 356 hlineto
            return
          </CharString>
          <CharString index="404">
            117 callgsubr
            142 vlineto
            33 return
          </CharString>
          <CharString index="405">
            323 callgsubr
            -62 hhcurveto
            return
          </CharString>
          <CharString index="406">
            88 64 46 102 hvcurveto
            311 vlineto
            87 -54 41 -74 -48 return
          </CharString>
          <CharString index="407">
            -42 -235 rlineto
            52 hlineto
            26 39 56 93 52 vvcurveto
            32 return
          </CharString>
          <CharString index="408">
            -19 hhcurveto
            -26 -29 -3 -5 -20 hvcurveto
            return
          </CharString>
          <CharString index="409">
            185 callgsubr
            -6 -12 callgsubr
            return
          </CharString>
          <CharString index="410">
            344 callsubr
            -146 vlineto
            -97 return
          </CharString>
          <CharString index="411">
            -57 -21 19 37 hvcurveto
            30 vlineto
            28 return
          </CharString>
          <CharString index="412">
            rmoveto
            -109 397 109 vlineto
            return
          </CharString>
          <CharString index="413">
            -5 -19 -7 -27 hhcurveto
            return
          </CharString>
          <CharString index="414">
            -96 44 -53 120 return
          </CharString>
          <CharString index="415">
            15 -29 51 hvcurveto
            return
          </CharString>
          <CharString index="416">
            vlineto
            23 11 11 return
          </CharString>
          <CharString index="417">
            vlineto
            -89 47 -55 115 115 47 55 89 vhcurveto
            return
          </CharString>
          <CharString index="418">
            -47 12 -31 31 -17 vhcurveto
            -33 -17 -15 -33 -42 vvcurveto
            return
          </CharString>
          <CharString index="419">
            208 callsubr
            87 99 return
          </CharString>
          <CharString index="420">
            212 callgsubr
            210 callgsubr
            -99 vlineto
            return
          </CharString>
          <CharString index="421">
            vlineto
            -148 109 327 callgsubr
            return
          </CharString>
          <CharString index="422">
            -115 58 -57 137 55 44 10 10 28 vhcurveto
            return
          </CharString>
          <CharString index="423">
            -23 31 54 hvcurveto
            34 vlineto
            return
          </CharString>
          <CharString index="424">
            230 callgsubr
            -35 -5 return
          </CharString>
          <CharString index="425">
            3 -8 6 -25 -31 vvcurveto
            return
          </CharString>
          <CharString index="426">
            vvcurveto
            30 7 17 return
          </CharString>
          <CharString index="427">
            12 -32 31 -18 vhcurveto
            167 callgsubr
            return
          </CharString>
          <CharString index="428">
            25 26 -18 19 -26 -25 -19 -19 -26 -25 19 return
          </CharString>
          <CharString index="429">
            376 175 rmoveto
            22 -5 19 -12 15 vhcurveto
            return
          </CharString>
          <CharString index="430">
            336 callgsubr
            0 return
          </CharString>
          <CharString index="431">
            -17 -37 vvcurveto
            -54 vlineto
            -25 -5 -16 -14 -10 vhcurveto
            return
          </CharString>
          <CharString index="432">
            vlineto
            78 4 39 39 78 vvcurveto
            return
          </CharString>
          <CharString index="433">
            vlineto
            31 -8 20 -4 3 vhcurveto
            return
          </CharString>
          <CharString index="434">
            vlineto
            -3 -18 -18 -3 -16 hhcurveto
            return
          </CharString>
          <CharString index="435">
            55 101 hvcurveto
            121 vlineto
            35 return
          </CharString>
          <CharString index="436">
            rmoveto
            3 -7 6 -26 -31 vvcurveto
            return
          </CharString>
          <CharString index="437">
            rmoveto
            -33 -11 -26 -46 vhcurveto
            -80 return
          </CharString>
          <CharString index="438">
            vhcurveto
            162 176 return
          </CharString>
          <CharString index="439">
            380 566 rmoveto
            return
          </CharString>
          <CharString index="440">
            vlineto
            -108 60 return
          </CharString>
          <CharString index="441">
            31 73 hvcurveto
            endchar
          </CharString>
          <CharString index="442">
            131 26 rlineto
            85 vlineto
            -131 -26 rlineto
            return
          </CharString>
          <CharString index="443">
            vlineto
            -34 -7 -16 -42 -4 -17 1 0 vhcurveto
            return
          </CharString>
          <CharString index="444" raw="1">
            f7a90a65 0b  
          </CharString>
          <CharString index="445">
            37 -87 -67 8 -48 hhcurveto
            -133 -52 -64 return
          </CharString>
          <CharString index="446">
            123 123 59 49 101 vhcurveto
            13 vlineto
            return
          </CharString>
          <CharString index="447">
            vlineto
            -28 -8 -20 -42 -43 -7 20 28 vhcurveto
            return
          </CharString>
          <CharString index="448">
            vlineto
            33 13 21 52 vhcurveto
            174 176 return
          </CharString>
          <CharString index="449">
            -58 -152 hvcurveto
            endchar
          </CharString>
          <CharString index="450">
            -55 -157 hvcurveto
            endchar
          </CharString>
          <CharString index="451">
            -47 -56 -96 hvcurveto
            return
          </CharString>
        <CharString name=".notdef">
          337 165 hmoveto
          425 701 -425 hlineto
          74 -70 rmoveto
          277 -561 -277 hlineto
          endchar
        </CharString>
        <CharString name="A">
          -47 callsubr
          -21 108 162 callsubr
        </CharString>
        <CharString name="AE">
          288 355 276 rmoveto
          -123 hlineto
          123 324 rlineto
          -600 vmoveto
          326 110 -207 182 179 111 -179 173 207 111 -402 hlineto
          -277 -687 rlineto
          125 hlineto
          64 168 rlineto
          164 hlineto
          endchar
        </CharString>
        <CharString name="Aacute">
          -47 callsubr
          -72 671 rmoveto
          -43 -113 rlineto
          69 hlineto
          71 113 rlineto
          -46 -563 162 callsubr
        </CharString>
        <CharString name="Abreve">
          -47 callsubr
          -21 108 107 callsubr
          48 267 48 callgsubr
          endchar
        </CharString>
        <CharString name="Acircumflex">
          -47 callsubr
          -21 108 107 callsubr
          45 154 -37 callgsubr
        </CharString>
        <CharString name="Adieresis">
          56 155 733 -88 callsubr
          29 -733 rmoveto
          122 hlineto
          -139 687 rlineto
          -178 hlineto
          -141 -687 rlineto
          123 hlineto
          31 168 310 callgsubr
          -21 108 162 callsubr
        </CharString>
        <CharString name="Agrave">
          -47 callsubr
          -183 671 rmoveto
          71 -113 rlineto
          69 hlineto
          -43 113 rlineto
          65 -563 162 callsubr
        </CharString>
        <CharString name="Amacron">
          -47 callsubr
          -204 649 rmoveto
          -68 254 68 vlineto
          -71 -541 162 callsubr
        </CharString>
        <CharString name="Aogonek">
          56 418 hmoveto
          -17 callgsubr
          -139 687 rlineto
          -178 hlineto
          -141 -687 rlineto
          123 hlineto
          31 168 310 callgsubr
          32 -168 rlineto
          -53 276 162 callsubr
        </CharString>
        <CharString name="Aring">
          -47 callsubr
          -77 583 rmoveto
          -18 -12 12 20 17 12 13 18 18 12 -13 -17 -20 -12 -12 -18 hvcurveto
          -46 vmoveto
          52 27 35 43 42 -27 34 -52 -51 -28 -34 -42 -43 28 -35 51 hvcurveto
          56 -429 162 callsubr
        </CharString>
        <CharString name="Atilde">
          -47 callsubr
          -21 108 107 callsubr
          68 263 -58 callgsubr
        </CharString>
        <CharString name="B">
          68 257 290 rmoveto
          41 20 -18 -40 hvcurveto
          -67 vlineto
          -40 -20 -18 -41 vhcurveto
          -78 183 hlineto
          72 289 rmoveto
          41 20 -17 -40 hvcurveto
          -62 vlineto
          -40 -20 -18 -41 vhcurveto
          -72 177 hlineto
          -127 -579 rmoveto
          224 hlineto
          107 61 48 109 hvcurveto
          68 vlineto
          59 -20 47 -58 16 vhcurveto
          53 18 19 45 57 vvcurveto
          63 vlineto
          109 -61 48 -107 vhcurveto
          -218 hlineto
          endchar
        </CharString>
        <CharString name="C">
          -11 42 155 rmoveto
          -99 64 -61 145 49 49 7 8 29 vhcurveto
          -3 callgsubr
          endchar
        </CharString>
        <CharString name="CR">
          -418 endchar
        </CharString>
        <CharString name="Cacute">
          -11 42 155 rmoveto
          -99 64 -61 145 49 49 7 8 29 vhcurveto
          -3 callgsubr
          207 308 -56 callsubr
        </CharString>
        <CharString name="Ccaron">
          -11 42 155 rmoveto
          -99 64 -61 145 49 49 7 8 29 vhcurveto
          -3 callgsubr
          236 308 -62 callsubr
        </CharString>
        <CharString name="Ccedilla">
          -11 42 155 rmoveto
          -87 49 -57 109 -13 vhcurveto
          -16 -73 62 callsubr
          8 34 rlineto
          44 49 7 8 29 hvcurveto
          -3 callgsubr
          endchar
        </CharString>
        <CharString name="D">
          67 10 callgsubr
          93 callsubr
          472 279 callsubr
          endchar
        </CharString>
        <CharString name="Dcaron">
          67 316 169 330 callsubr
          472 279 callsubr
          -264 158 rmoveto
          -687 231 vlineto
          113 47 62 98 hvcurveto
          374 vlineto
          99 -60 54 -107 vhcurveto
          -5 152 -62 callsubr
        </CharString>
        <CharString name="Dcroat">
          72 60 687 rmoveto
          -295 -63 -106 63 -286 93 callsubr
          176 69 106 -69 190 279 callsubr
          endchar
        </CharString>
        <CharString name="E">
          -41 callgsubr
          endchar
        </CharString>
        <CharString name="Eacute">
          -41 callgsubr
          -162 152 -56 callsubr
        </CharString>
        <CharString name="Ecaron">
          -41 callgsubr
          -131 152 -62 callsubr
        </CharString>
        <CharString name="Ecircumflex">
          -41 callgsubr
          -134 39 -37 callgsubr
        </CharString>
        <CharString name="Edieresis">
          -41 callgsubr
          -246 46 -88 callsubr
          endchar
        </CharString>
        <CharString name="Edotaccent">
          -41 callgsubr
          -165 53 35 callgsubr
        </CharString>
        <CharString name="Egrave">
          -41 callgsubr
          -271 152 34 callgsubr
        </CharString>
        <CharString name="Emacron">
          -41 callgsubr
          -297 130 118 callgsubr
        </CharString>
        <CharString name="Eogonek">
          159 callgsubr
          285 vlineto
          -17 callgsubr
          1 110 -207 182 179 111 -179 173 207 111 hlineto
          endchar
        </CharString>
        <CharString name="Eth">
          72 60 687 rmoveto
          -296 -67 -106 67 -285 93 callsubr
          175 71 106 -71 191 279 callsubr
          endchar
        </CharString>
        <CharString name="Euro">
          35 70 155 rmoveto
          -99 64 -61 145 49 49 7 8 29 vhcurveto
          115 vlineto
          -10 -32 -47 -5 -45 hhcurveto
          -64 -20 22 35 hvcurveto
          69 117 85 -117 52 117 84 -117 62 vlineto
          36 19 22 65 44 45 -7 -10 32 vhcurveto
          117 vlineto
          8 -29 -45 7 -49 hhcurveto
          -144 -66 -63 -98 hvcurveto
          -74 -52 -84 52 -52 -52 -85 52 vlineto
          endchar
        </CharString>
        <CharString name="F">
          -24 120 callsubr
          268 184 113 -184 195 197 111 vlineto
          endchar
        </CharString>
        <CharString name="G">
          -4 callsubr
          endchar
        </CharString>
        <CharString name="Gbreve">
          -4 callsubr
          251 312 48 callgsubr
          endchar
        </CharString>
        <CharString name="H">
          103 341 687 rmoveto
          -293 -161 293 -128 -687 128 281 161 -281 342 callgsubr
        </CharString>
        <CharString name="I">
          68 callgsubr
          endchar
        </CharString>
        <CharString name="Iacute">
          68 callgsubr
          -59 152 -56 callsubr
        </CharString>
        <CharString name="Icircumflex">
          68 callgsubr
          -23 39 -37 callgsubr
        </CharString>
        <CharString name="Idieresis">
          68 callgsubr
          -145 46 -88 callsubr
          endchar
        </CharString>
        <CharString name="Idotaccent">
          68 callgsubr
          -65 53 35 callgsubr
        </CharString>
        <CharString name="Igrave">
          68 callgsubr
          -166 152 34 callgsubr
        </CharString>
        <CharString name="Imacron">
          68 callgsubr
          -188 130 118 callgsubr
        </CharString>
        <CharString name="Iogonek">
          -186 10 callgsubr
          80 vlineto
          -17 callgsubr
          687 vlineto
          endchar
        </CharString>
        <CharString name="J">
          -182 56 687 rmoveto
          -483 vlineto
          -96 -15 -63 -26 -90 vhcurveto
          -30 -104 rlineto
          134 hlineto
          31 103 rlineto
          26 87 8 54 110 vvcurveto
          482 vlineto
          endchar
        </CharString>
        <CharString name="K">
          148 callsubr
          endchar
        </CharString>
        <CharString name="L">
          191 callsubr
          endchar
        </CharString>
        <CharString name="Lacute">
          191 callsubr
          -59 152 -56 callsubr
        </CharString>
        <CharString name="Lcaron">
          -42 243 739 rmoveto
          253 callsubr
          -231 -52 rmoveto
          -687 331 callgsubr
          580 vlineto
          endchar
        </CharString>
        <CharString name="Lslash">
          -40 60 687 rmoveto
          -332 vlineto
          -55 -24 rlineto
          -87 vlineto
          55 24 rlineto
          -268 331 callgsubr
          216 vlineto
          89 39 rlineto
          88 vlineto
          -89 -39 rlineto
          276 vlineto
          endchar
        </CharString>
        <CharString name="M">
          220 451 687 rmoveto
          -133 -374 -132 374 rlineto
          -134 -687 122 274 hlineto
          110 -16 93 0 vhcurveto
          108 -300 rlineto
          105 hlineto
          108 300 rlineto
          0 -16 -90 -113 vvcurveto
          -274 123 687 vlineto
          endchar
        </CharString>
        <CharString name="N">
          -57 callgsubr
          endchar
        </CharString>
        <CharString name="NULL">
          -418 endchar
        </CharString>
        <CharString name="Nacute">
          -57 callgsubr
          -212 152 -56 callsubr
        </CharString>
        <CharString name="Ncaron">
          -57 callgsubr
          -176 152 -62 callsubr
        </CharString>
        <CharString name="Ntilde">
          -57 callgsubr
          -134 148 -58 callgsubr
        </CharString>
        <CharString name="O">
          -79 callgsubr
          endchar
        </CharString>
        <CharString name="OE">
          282 246 110 rmoveto
          -46 -11 26 33 hvcurveto
          360 vlineto
          30 11 23 46 vhcurveto
          92 -472 hlineto
          -116 -110 rmoveto
          450 110 -207 182 179 111 -179 173 207 111 -443 hlineto
          -107 -60 -54 -99 hvcurveto
          -374 vlineto
          -98 47 -62 113 vhcurveto
          endchar
        </CharString>
        <CharString name="Oacute">
          -79 callgsubr
          -57 321 -56 callsubr
        </CharString>
        <CharString name="Ocircumflex">
          62 311 169 rmoveto
          -38 -21 -25 -51 -50 -20 25 38 vhcurveto
          349 vlineto
          38 20 25 50 51 21 -26 -37 vhcurveto
          -269 -355 rmoveto
          -101 64 -72 133 134 65 72 101 vhcurveto
          361 vlineto
          101 -65 72 -134 -133 -64 -72 -101 vhcurveto
          238 202 -37 callgsubr
        </CharString>
        <CharString name="Odieresis">
          -79 callgsubr
          -152 215 -88 callsubr
          endchar
        </CharString>
        <CharString name="Ograve">
          -79 callgsubr
          -180 321 34 callgsubr
        </CharString>
        <CharString name="Ohungarumlaut">
          -79 callgsubr
          -6 321 57 callgsubr
        </CharString>
        <CharString name="Omacron">
          -79 callgsubr
          -197 299 118 callgsubr
        </CharString>
        <CharString name="Oslash">
          62 42 163 rmoveto
          -37 9 -34 18 -27 vhcurveto
          -31 -65 rlineto
          79 hlineto
          7 15 rlineto
          -16 30 38 -9 47 hhcurveto
          134 65 72 101 hvcurveto
          361 vlineto
          37 -9 34 -18 27 vhcurveto
          31 65 rlineto
          -80 hlineto
          -7 -15 rlineto
          16 -30 -39 9 -47 hhcurveto
          -133 -64 -72 -101 hvcurveto
          127 -6 rmoveto
          38 20 25 50 31 19 -9 -16 11 vhcurveto
          -131 -278 rlineto
          70 -172 rmoveto
          -30 -20 9 16 -10 hvcurveto
          132 279 rlineto
          -241 vlineto
          -38 -21 -25 -51 vhcurveto
          endchar
        </CharString>
        <CharString name="Otilde">
          -79 callgsubr
          -4 317 -58 callgsubr
        </CharString>
        <CharString name="P">
          43 120 callsubr
          209 80 vlineto
          107 63 54 99 hvcurveto
          172 vlineto
          99 -63 54 -107 vhcurveto
          43 -311 rmoveto
          -38 -17 -19 -41 vhcurveto
          -65 257 65 hlineto
          41 17 -18 -38 hvcurveto
          endchar
        </CharString>
        <CharString name="Q">
          62 311 169 rmoveto
          -38 -21 -25 -51 -50 -20 25 38 vhcurveto
          349 vlineto
          38 20 25 50 51 21 -26 -37 vhcurveto
          -269 -355 rmoveto
          -101 64 -72 133 7 8 0 1 7 vhcurveto
          77 -82 rlineto
          151 hlineto
          -114 119 rlineto
          42 30 21 48 57 vvcurveto
          361 vlineto
          101 -65 72 -134 -133 -64 -72 -101 vhcurveto
          endchar
        </CharString>
        <CharString name="R">
          57 -34 callsubr
          endchar
        </CharString>
        <CharString name="Racute">
          57 10 callgsubr
          127 256 42 vlineto
          95 -256 261 callgsubr
          -108 268 rlineto
          58 21 25 50 76 vvcurveto
          119 vlineto
          100 -63 53 -107 vhcurveto
          -27 152 rmoveto
          -43 -113 rlineto
          69 hlineto
          71 113 rlineto
          -27 -422 rmoveto
          -41 -15 -18 -41 vhcurveto
          -68 220 68 hlineto
          38 18 -15 -39 hvcurveto
          endchar
        </CharString>
        <CharString name="Rcaron">
          57 -34 callsubr
          -39 315 -62 callsubr
        </CharString>
        <CharString name="S">
          -85 callsubr
          endchar
        </CharString>
        <CharString name="Sacute">
          -85 callsubr
          200 307 -56 callsubr
        </CharString>
        <CharString name="Scaron">
          -85 callsubr
          227 307 -62 callsubr
        </CharString>
        <CharString name="T">
          86 callgsubr
          endchar
        </CharString>
        <CharString name="Tcaron">
          86 callgsubr
          -153 152 -62 callsubr
        </CharString>
        <CharString name="Thorn">
          28 250 470 rmoveto
          42 17 -19 -38 hvcurveto
          -139 vlineto
          -37 -17 -19 -42 vhcurveto
          -66 252 hlineto
          -122 217 rmoveto
          -687 122 109 76 vlineto
          107 64 54 99 hvcurveto
          163 vlineto
          100 -64 54 -107 vhcurveto
          -76 108 hlineto
          endchar
        </CharString>
        <CharString name="U">
          68 313 687 -57 callsubr
          endchar
        </CharString>
        <CharString name="Uacute">
          68 313 687 -57 callsubr
          -189 152 -56 callsubr
        </CharString>
        <CharString name="Ucircumflex">
          68 313 687 -57 callsubr
          -158 39 -37 callgsubr
        </CharString>
        <CharString name="Udieresis">
          68 313 687 -57 callsubr
          -278 46 -88 callsubr
          endchar
        </CharString>
        <CharString name="Ugrave">
          68 313 687 -57 callsubr
          -301 152 34 callgsubr
        </CharString>
        <CharString name="Uhungarumlaut">
          68 304 839 rmoveto
          142 callsubr
          -199 hmoveto
          142 callsubr
          30 -152 -57 callsubr
          endchar
        </CharString>
        <CharString name="Umacron">
          68 313 687 -57 callsubr
          -324 130 118 callgsubr
        </CharString>
        <CharString name="Uogonek">
          68 313 687 rmoveto
          -518 vlineto
          -38 -20 -25 -50 -51 -18 25 38 vhcurveto
          518 -127 -524 vlineto
          -101 62 -72 134 11 11 1 1 10 vhcurveto
          -26 -28 -18 -35 -36 vvcurveto
          -48 32 -28 59 vhcurveto
          21 63 -11 hlineto
          -21 -10 10 26 34 16 33 22 23 hvcurveto
          68 27 33 57 73 vvcurveto
          524 vlineto
          endchar
        </CharString>
        <CharString name="Uring">
          68 313 687 -57 callsubr
          -196 18 6 callsubr
        </CharString>
        <CharString name="V">
          48 327 687 rmoveto
          -53 -306 -16 -89 -19 -159 -4 -21 rlinecurve
          -4 21 -20 158 -17 91 -57 305 rcurveline
          -130 hlineto
          138 -687 rlineto
          177 hlineto
          137 687 rlineto
          endchar
        </CharString>
        <CharString name="W">
          180 477 687 rmoveto
          -43 -278 rlineto
          -11 -81 -8 -101 0 vvcurveto
          0 -12 101 -10 81 vhcurveto
          -37 278 rlineto
          -111 hlineto
          -39 -278 rlineto
          -12 -92 -11 -96 0 vvcurveto
          0 -6 96 -13 92 vhcurveto
          -42 278 rlineto
          -112 hlineto
          95 -687 rlineto
          126 hlineto
          47 292 rlineto
          14 91 9 110 0 vvcurveto
          0 10 -110 14 -91 vhcurveto
          46 -292 rlineto
          119 hlineto
          98 687 rlineto
          endchar
        </CharString>
        <CharString name="X">
          28 301 687 rmoveto
          -76 -210 -80 210 rlineto
          -138 hlineto
          148 -345 -148 -342 319 callgsubr
          80 208 75 -208 261 callgsubr
          -149 342 149 345 rlineto
          endchar
        </CharString>
        <CharString name="Y">
          111 callsubr
          endchar
        </CharString>
        <CharString name="Yacute">
          111 callsubr
          -223 153 -56 callsubr
        </CharString>
        <CharString name="Ydieresis">
          43 151 733 -88 callsubr
          21 -46 rmoveto
          -42 -126 -30 -96 -15 -56 -13 -56 rlinecurve
          -12 56 -14 55 -31 95 -43 128 rcurveline
          -131 hlineto
          165 -469 rlineto
          -218 129 218 vlineto
          165 469 rlineto
          endchar
        </CharString>
        <CharString name="Z">
          32 callgsubr
          endchar
        </CharString>
        <CharString name="Zacute">
          32 callgsubr
          -175 152 -56 callsubr
        </CharString>
        <CharString name="Zcaron">
          32 callgsubr
          -144 152 -62 callsubr
        </CharString>
        <CharString name="Zdotaccent">
          32 callgsubr
          -179 53 35 callgsubr
        </CharString>
        <CharString name="a">
          -100 callgsubr
          endchar
        </CharString>
        <CharString name="aacute">
          -100 callgsubr
          -50 487 -56 callsubr
        </CharString>
        <CharString name="abreve">
          -100 callgsubr
          -4 487 48 callgsubr
          endchar
        </CharString>
        <CharString name="acircumflex">
          -100 callgsubr
          -10 374 -37 callgsubr
        </CharString>
        <CharString name="acute">
          -68 148 739 -56 callsubr
        </CharString>
        <CharString name="adieresis">
          -100 callgsubr
          -134 381 -88 callsubr
          endchar
        </CharString>
        <CharString name="ae">
          235 197 589 rmoveto
          -66 -57 -13 -8 -21 hvcurveto
          -113 vlineto
          8 21 56 14 57 hhcurveto
          62 14 -21 -29 hvcurveto
          1 -65 -117 -36 rlineto
          -85 -26 -35 -42 -84 vvcurveto
          -35 vlineto
          -96 52 -47 96 65 50 12 22 33 vhcurveto
          -23 32 47 -13 64 hhcurveto
          76 33 10 8 32 hvcurveto
          113 vlineto
          -6 -22 -49 -13 -59 hhcurveto
          -62 -30 16 49 hvcurveto
          69 237 194 vlineto
          96 -51 64 -126 -55 -41 -15 -21 -28 vhcurveto
          20 -28 -41 11 -55 hhcurveto
          69 -477 rmoveto
          -13 -20 -27 -6 -23 hhcurveto
          -30 -18 14 33 hvcurveto
          28 vlineto
          40 8 16 42 11 vhcurveto
          68 19 rlineto
          237 85 rmoveto
          -118 94 hlineto
          34 21 20 39 39 19 -20 -34 vhcurveto
          endchar
        </CharString>
        <CharString name="agrave">
          -100 callgsubr
          -158 487 34 callgsubr
        </CharString>
        <CharString name="amacron">
          -100 callgsubr
          -173 465 118 callgsubr
        </CharString>
        <CharString name="ampersand">
          72 245 105 rmoveto
          -50 -15 26 38 hvcurveto
          70 vlineto
          40 17 22 46 vhcurveto
          68 -132 hlineto
          -38 -16 -26 -50 vhcurveto
          -190 367 rmoveto
          -60 28 -38 42 -15 vhcurveto
          -46 -14 -26 -37 -61 vvcurveto
          -81 vlineto
          -101 58 333 callgsubr
          54 72 101 vhcurveto
          135 48 109 -48 64 -122 -64 -69 vlineto
          -46 -14 22 42 hvcurveto
          43 vlineto
          36 17 23 74 51 39 -5 -13 34 vhcurveto
          119 vlineto
          9 -28 -43 7 -56 hhcurveto
          -149 -66 -65 -97 hvcurveto
          endchar
        </CharString>
        <CharString name="aogonek">
          16 53 456 rmoveto
          8 21 56 13 57 hhcurveto
          61 16 -18 -39 1 hvcurveto
          -64 vlineto
          -118 -31 rlineto
          -87 -24 -37 -43 -84 vvcurveto
          -34 vlineto
          -97 41 -45 95 59 31 22 22 18 vhcurveto
          -42 70 vlineto
          -17 callgsubr
          2 420 hlineto
          108 -48 61 -139 -66 -55 -10 -9 -26 vhcurveto
          211 -458 rmoveto
          -11 -16 -26 -8 -26 hhcurveto
          -36 -12 17 30 hvcurveto
          28 vlineto
          40 8 15 42 12 vhcurveto
          66 17 rlineto
          endchar
        </CharString>
        <CharString name="apostrophemod">
          200 callgsubr
        </CharString>
        <CharString name="approxequal">
          160 429 315 102 callgsubr
          -112 207 102 callgsubr
          endchar
        </CharString>
        <CharString name="aring">
          -100 callgsubr
          -55 353 6 callsubr
        </CharString>
        <CharString name="asciicircum">
          -13 276 394 rmoveto
          126 hlineto
          -127 322 rlineto
          -146 hlineto
          -128 -322 rlineto
          125 hlineto
          75 239 rlineto
          endchar
        </CharString>
        <CharString name="asciitilde">
          150 424 428 rmoveto
          10 -57 -39 -8 -48 18 -127 46 rcurveline
          -98 35 -97 -26 -118 vvcurveto
          -27 4 -24 0 vhcurveto
          112 hlineto
          -10 57 40 8 48 -18 126 -46 rcurveline
          98 -35 98 26 118 vvcurveto
          29 -5 22 0 vhcurveto
          endchar
        </CharString>
        <CharString name="asterisk">
          120 210 823 rmoveto
          -93 vlineto
          -25 3 -21 4 -16 vhcurveto
          -14 9 -19 9 -24 8 -88 28 rcurveline
          -36 -111 88 -28 24 -8 21 -4 17 -1 rlinecurve
          -13 -11 -15 -15 -15 -20 -54 -75 rcurveline
          95 -69 54 74 15 20 10 19 6 16 rlinecurve
          6 -16 9 -19 15 -20 55 -74 rcurveline
          95 69 -55 74 -15 21 -15 15 -13 11 rlinecurve
          17 1 21 3 25 8 88 29 rcurveline
          -36 112 -88 -30 -25 -8 -19 -9 -15 -9 rlinecurve
          5 16 3 21 26 vvcurveto
          93 vlineto
          endchar
        </CharString>
        <CharString name="at">
          482 455 -131 rmoveto
          91 99 -90 hlineto
          -254 -31 127 187 185 29 130 256 257 26 -123 -188 -141 -24 -38 -56 -48 -19 19 50 hvcurveto
          231 vlineto
          79 -44 40 -101 -51 -47 -10 -7 -23 vhcurveto
          -85 vlineto
          9 30 40 10 51 hhcurveto
          41 7 -16 -25 hvcurveto
          -58 vlineto
          -98 -34 rlineto
          -60 -22 -30 -34 -66 vvcurveto
          -24 vlineto
          -72 36 -41 78 51 30 11 10 17 vhcurveto
          -39 25 47 -20 61 hhcurveto
          119 74 67 206 246 -75 164 -314 -309 -84 -170 -244 -245 80 -168 312 hvcurveto
          40 277 rmoveto
          0 -24 -14 -27 -30 -9 9 24 vhcurveto
          26 vlineto
          31 11 9 27 10 vhcurveto
          52 17 rlineto
          endchar
        </CharString>
        <CharString name="atilde">
          -100 callgsubr
          17 483 -58 callgsubr
        </CharString>
        <CharString name="b">
          40 52 739 rmoveto
          -739 213 vlineto
          88 64 45 102 hvcurveto
          312 vlineto
          87 -55 41 -74 -48 -39 -10 -8 -22 vhcurveto
          170 vlineto
          108 -573 rmoveto
          -34 -20 -15 -35 vhcurveto
          -52 337 hlineto
          8 16 24 7 25 hhcurveto
          27 15 -12 -27 hvcurveto
          endchar
        </CharString>
        <CharString name="backslash">
          41 37 845 rmoveto
          270 -1014 rlineto
          118 hlineto
          -271 1014 rlineto
          endchar
        </CharString>
        <CharString name="bar">
          -199 65 858 rmoveto
          -1037 87 1037 vlineto
          endchar
        </CharString>
        <CharString name="braceleft">
          -24 241 676 rmoveto
          28 15 19 37 vhcurveto
          36 109 -45 hlineto
          -99 -54 -66 -96 hvcurveto
          -220 vlineto
          -41 -26 -21 -45 vhcurveto
          -5 -109 5 hlineto
          45 26 -22 -41 hvcurveto
          -221 vlineto
          -96 54 -65 99 vhcurveto
          45 109 -36 hlineto
          -37 -15 18 29 hvcurveto
          201 vlineto
          82 -18 48 -73 13 vhcurveto
          73 13 18 54 82 vvcurveto
          endchar
        </CharString>
        <CharString name="braceright">
          -26 330 388 rmoveto
          -45 -26 21 41 hvcurveto
          220 vlineto
          96 -54 66 -99 vhcurveto
          -45 -109 36 hlineto
          37 14 -19 -28 hvcurveto
          -193 vlineto
          -82 18 -54 73 -13 vhcurveto
          -73 -13 -18 -48 -82 vvcurveto
          -201 vlineto
          -29 -14 -18 -37 vhcurveto
          -36 -109 45 hlineto
          99 54 65 96 hvcurveto
          221 vlineto
          41 26 22 45 vhcurveto
          4 109 hlineto
          endchar
        </CharString>
        <CharString name="bracketleft">
          -67 86 845 rmoveto
          -1014 225 101 -121 814 121 99 vlineto
          endchar
        </CharString>
        <CharString name="bracketright">
          -67 40 845 rmoveto
          -99 121 -814 -121 -101 224 1014 vlineto
          endchar
        </CharString>
        <CharString name="breve">
          -68 223 739 48 callgsubr
          endchar
        </CharString>
        <CharString name="brokenbar">
          65 858 rmoveto
          -387 87 387 vlineto
          -87 -650 rmoveto
          -387 87 387 vlineto
          endchar
        </CharString>
        <CharString name="bullet">
          -161 127 242 rmoveto
          70 22 40 52 52 -22 40 -70 -71 -21 -40 -52 -52 21 -40 71 hvcurveto
          endchar
        </CharString>
        <CharString name="c">
          -44 42 160 rmoveto
          -109 62 -56 126 58 31 6 9 31 vhcurveto
          -5 callgsubr
          endchar
        </CharString>
        <CharString name="cacute">
          -44 42 160 rmoveto
          -109 62 -56 126 58 31 6 9 31 vhcurveto
          -5 callgsubr
          193 315 -56 callsubr
        </CharString>
        <CharString name="caron">
          -68 214 739 -62 callsubr
        </CharString>
        <CharString name="ccaron">
          -44 42 160 rmoveto
          -109 62 -56 126 58 31 6 9 31 vhcurveto
          -5 callgsubr
          224 315 -62 callsubr
        </CharString>
        <CharString name="ccedilla">
          -44 42 160 rmoveto
          -94 46 -54 93 -14 vhcurveto
          -16 -73 62 callsubr
          8 34 rlineto
          51 31 6 9 31 hvcurveto
          -5 callgsubr
          endchar
        </CharString>
        <CharString name="cedilla">
          -68 142 6 rmoveto
          -18 -81 62 callsubr
          10 45 rlineto
          endchar
        </CharString>
        <CharString name="cent">
          -33 171 655 rmoveto
          -72 vlineto
          -84 -17 -41 -54 -88 vvcurveto
          -264 vlineto
          -88 40 -53 81 -17 vhcurveto
          -72 118 67 vlineto
          28 2 21 5 20 6 rrcurveto
          118 vlineto
          -7 -22 -36 -9 -42 hhcurveto
          -58 -22 15 43 hvcurveto
          244 vlineto
          42 22 16 58 41 36 -9 -6 22 vhcurveto
          117 vlineto
          -19 6 -19 4 -26 3 rrcurveto
          68 vlineto
          endchar
        </CharString>
        <CharString name="circumflex">
          -68 214 626 -37 callgsubr
        </CharString>
        <CharString name="colon">
          -177 108 342 244 callsubr
          -351 vmoveto
          100 callsubr
        </CharString>
        <CharString name="comma">
          -220 222 callgsubr
          endchar
        </CharString>
        <CharString name="copyright">
          284 351 hmoveto
          251 61 142 190 195 -55 138 -257 -253 -60 -141 -192 -193 59 -139 254 hvcurveto
          -125 274 rmoveto
          -75 37 -45 98 43 29 9 1 5 vhcurveto
          78 vlineto
          -6 -34 -15 -1 -27 hhcurveto
          -43 -4 17 24 hvcurveto
          114 vlineto
          24 4 17 43 27 15 -2 -6 33 vhcurveto
          79 vlineto
          2 -5 -28 8 -43 hhcurveto
          -98 -37 -45 -75 hvcurveto
          125 -303 rmoveto
          -203 -16 100 143 142 14 101 205 207 11 -99 -144 -140 -19 -103 -199 hvcurveto
          endchar
        </CharString>
        <CharString name="currency">
          42 298 295 rmoveto
          -40 -17 -24 -49 -49 -17 25 39 vhcurveto
          97 vlineto
          40 17 23 49 49 17 -24 -39 vhcurveto
          79 -307 rmoveto
          74 73 -48 47 rlineto
          12 25 6 29 32 vvcurveto
          105 vlineto
          32 -5 28 -12 25 vhcurveto
          48 47 -74 74 -51 -52 rlineto
          11 -26 -31 5 -38 hhcurveto
          -37 -31 -5 -10 -26 hvcurveto
          -51 51 -73 -74 47 -46 rlineto
          -12 -25 -6 -29 -32 vvcurveto
          -105 vlineto
          -32 6 -29 12 -25 vhcurveto
          -48 -47 73 -73 51 51 rlineto
          -10 26 31 -6 38 hhcurveto
          37 32 5 11 25 hvcurveto
          endchar
        </CharString>
        <CharString name="d">
          40 74 callgsubr
          endchar
        </CharString>
        <CharString name="dagger">
          -39 132 817 rmoveto
          -76 9 -85 0 vhcurveto
          225 callsubr
          0 -9 -85 -98 vvcurveto
          -421 118 421 vlineto
          98 -9 85 0 vhcurveto
          0 52 -8 62 vhcurveto
          99 vlineto
          -62 -52 -9 0 hvcurveto
          0 9 85 76 vvcurveto
          endchar
        </CharString>
        <CharString name="daggerdbl">
          -38 132 817 rmoveto
          -76 8 -85 0 vhcurveto
          225 callsubr
          -2 -84 0 -188 2 -89 rrcurveto
          225 callsubr
          0 -8 -55 -106 vvcurveto
          117 hlineto
          106 -8 55 0 vhcurveto
          312 callgsubr
          2 89 0 189 -2 83 rrcurveto
          312 callgsubr
          0 8 85 76 vvcurveto
          endchar
        </CharString>
        <CharString name="danda">
          -107 142 hmoveto
          326 callgsubr
          endchar
        </CharString>
        <CharString name="dcaron">
          61 74 callgsubr
          192 269 rmoveto
          -26 -146 rlineto
          45 hlineto
          16 23 38 91 callsubr
        </CharString>
        <CharString name="dcroat">
          42 279 739 rmoveto
          -47 -126 -59 126 -49 -58 vlineto
          -119 -58 -67 -104 hvcurveto
          -279 vlineto
          -86 44 -52 88 60 34 29 14 13 vhcurveto
          -39 125 633 40 59 -40 47 vlineto
          -128 -608 rmoveto
          -10 -12 -26 -9 -27 hhcurveto
          -30 -13 15 28 hvcurveto
          254 vlineto
          42 22 19 39 vhcurveto
          47 hlineto
          endchar
        </CharString>
        <CharString name="degree">
          2 210 496 rmoveto
          118 48 72 99 99 -48 72 -118 -119 -46 -72 -99 -99 46 -72 119 hvcurveto
          96 vmoveto
          -48 -12 28 47 46 12 29 48 47 14 -29 -46 -47 -14 -28 -47 hvcurveto
          endchar
        </CharString>
        <CharString name="dieresis">
          -68 95 633 -88 callsubr
          endchar
        </CharString>
        <CharString name="divide">
          62 41 383 305 callsubr
          -198 -291 219 callgsubr
          -51 -51 -14 -29 -37 -36 308 callsubr
          -1 343 rmoveto
          237 callgsubr
        </CharString>
        <CharString name="dollar">
          6 151 744 rmoveto
          -59 vlineto
          -88 -19 -41 -55 -79 vvcurveto
          -61 vlineto
          -74 38 -43 56 -32 vhcurveto
          110 -59 rlineto
          36 -20 12 -14 -34 vvcurveto
          -23 vlineto
          -34 -27 -25 -69 -58 -56 13 14 -34 vhcurveto
          -123 vlineto
          17 -7 43 -10 53 -4 rrcurveto
          -55 120 62 vlineto
          93 19 46 54 80 vvcurveto
          60 vlineto
          66 -28 39 -54 29 vhcurveto
          -114 65 rlineto
          -42 23 -12 15 40 vvcurveto
          24 vlineto
          34 17 23 62 58 44 -10 -14 33 vhcurveto
          122 vlineto
          -16 6 -33 9 -47 3 rrcurveto
          54 vlineto
          endchar
        </CharString>
        <CharString name="dotaccent">
          -68 175 640 35 callgsubr
        </CharString>
        <CharString name="dotlessi">
          68 callsubr
          endchar
        </CharString>
        <CharString name="dottedcircle">
          242 183 472 rmoveto
          26 18 19 26 25 -18 19 -26 -26 -18 -19 -25 -26 18 -19 26 hvcurveto
          -80 -109 rmoveto
          24 20 19 25 25 -20 19 -24 -26 -20 -19 -25 -25 20 -19 26 hvcurveto
          -15 -125 rmoveto
          26 18 18 321 callsubr
          -18 25 hvcurveto
          52 -117 rmoveto
          25 19 18 26 25 -19 19 -25 -26 -18 -19 -25 -26 18 -18 26 hvcurveto
          102 -77 rmoveto
          25 19 20 26 24 -19 20 -25 -26 -19 -20 -24 -26 19 -20 26 hvcurveto
          126 -14 rmoveto
          26 19 18 26 26 -19 18 -26 278 callgsubr
          121 53 rmoveto
          25 20 18 26 25 -20 19 -25 -25 -19 -19 -25 -26 19 -18 25 hvcurveto
          74 98 rmoveto
          24 19 19 25 26 -19 19 -24 -26 -19 -19 -26 -25 19 -19 26 hvcurveto
          9 134 rmoveto
          25 19 18 26 26 -19 18 -25 278 callgsubr
          -50 118 rmoveto
          26 18 19 321 callsubr
          -19 25 hvcurveto
          -94 68 rmoveto
          25 18 20 24 26 -18 19 -25 -26 -19 -19 -26 -24 19 -20 26 hvcurveto
          -127 15 rmoveto
          26 18 18 26 26 -18 18 -26 278 callgsubr
          endchar
        </CharString>
        <CharString name="doubledanda">
          25 62 hmoveto
          326 callgsubr
          212 -665 rmoveto
          326 callgsubr
          endchar
        </CharString>
        <CharString name="dvA">
          177 226 132 callgsubr
          86 99 -204 -350 -94 vlineto
          -69 callsubr
          endchar
        </CharString>
        <CharString name="dvAA">
          403 233 132 callgsubr
          102 -89 callgsubr
          -424 -350 -94 vlineto
          -69 callsubr
          endchar
        </CharString>
        <CharString name="dvAI">
          19 271 665 rmoveto
          -306 -99 84 -399 hlineto
          315 callsubr
          107 vlineto
          -10 -35 -38 -8 -50 hhcurveto
          -62 -19 24 43 hvcurveto
          395 81 callsubr
          -80 vlineto
          -154 230 rlineto
          -131 hlineto
          endchar
        </CharString>
        <CharString name="dvAU">
          404 363 795 rmoveto
          135 callgsubr
          -97 -350 -94 hlineto
          -69 callsubr
          -50 vlineto
          -36 callgsubr
          102 -89 callgsubr
          -91 vlineto
          18 callsubr
          endchar
        </CharString>
        <CharString name="dvAbbreviationsign">
          2 210 159 rmoveto
          118 48 69 99 98 -48 70 -118 -119 -46 -70 -98 -99 46 -69 119 hvcurveto
          239 vmoveto
          47 14 -25 -47 -46 -14 -25 -47 -48 -12 25 46 47 12 25 48 hvcurveto
          endchar
        </CharString>
        <CharString name="dvAcandra">
          177 226 132 callgsubr
          86 99 -204 -350 -94 vlineto
          -69 callsubr
          339 635 -6 callgsubr
          endchar
        </CharString>
        <CharString name="dvAnusvara">
          -418 -110 727 -15 callgsubr
        </CharString>
        <CharString name="dvAnusvara.amI">
          -418 104 730 -15 callgsubr
        </CharString>
        <CharString name="dvAvagraha">
          3 392 192 rmoveto
          66 -11 42 -66 44 vhcurveto
          -124 82 rlineto
          -31 21 -10 16 32 vvcurveto
          15 vlineto
          25 6 20 45 vhcurveto
          167 110 -175 hlineto
          -119 -42 -54 -95 hvcurveto
          -26 vlineto
          -59 24 -45 50 -33 vhcurveto
          128 -85 rlineto
          32 -21 8 -17 -35 vvcurveto
          -40 vlineto
          -27 -10 -23 -49 vhcurveto
          -6 hlineto
          -49 -10 23 27 hvcurveto
          62 -118 -58 vlineto
          -106 52 -58 122 vhcurveto
          14 hlineto
          121 51 58 106 hvcurveto
          endchar
        </CharString>
        <CharString name="dvB">
          -161 -35 665 rmoveto
          -99 456 99 vlineto
          -386 -443 rmoveto
          -105 55 -59 132 126 57 56 108 vhcurveto
          120 vlineto
          108 -57 56 -126 -139 -48 -59 -105 vhcurveto
          265 -91 rmoveto
          -139 134 rlineto
          15 11 20 8 32 hhcurveto
          57 19 -26 -45 hvcurveto
          -153 -24 rmoveto
          140 -135 rlineto
          -14 -11 -20 -8 -32 hhcurveto
          -58 -19 25 45 hvcurveto
          endchar
        </CharString>
        <CharString name="dvBA">
          38 293 122 callsubr
          -134 vlineto
          36 callsubr
          -526 -99 328 vlineto
          -69 -158 rmoveto
          -31 callsubr
          -252 vmoveto
          -58 -19 26 38 hvcurveto
          90 vlineto
          146 -137 rlineto
          -10 vlineto
          -3 -18 -19 -4 -32 hhcurveto
          endchar
        </CharString>
        <CharString name="dvBH">
          10 250 82 callgsubr
          259 100 rmoveto
          -141 2 callgsubr
          146 vlineto
          endchar
        </CharString>
        <CharString name="dvBHA">
          212 251 82 callgsubr
          100 vmoveto
          -49 hlineto
          -116 -47 -54 -88 hvcurveto
          -81 -64 callsubr
        </CharString>
        <CharString name="dvBH_LA">
          642 250 82 callgsubr
          759 -323 rmoveto
          566 87 99 -673 -99 468 -84 vlineto
          2 -6 -21 5 -28 298 callsubr
          -70 -48 -24 -43 -25 hvcurveto
          -110 2 callgsubr
          94 -149 vlineto
          -116 56 -58 136 27 21 2 2 16 vhcurveto
          112 callsubr
          vlineto
          endchar
        </CharString>
        <CharString name="dvBH_NA">
          597 250 82 callgsubr
          714 -323 175 callsubr
          -621 -99 417 334 callgsubr
          -73 -45 -23 -42 -22 hvcurveto
          -102 94 158 callsubr
          -22 4 -19 84 callgsubr
          -4 18 20 54 callsubr
          -91 -49 vlineto
          82 callsubr
          89 -117 -97 callsubr
          87 -379 hlineto
          -199 379 85 callsubr
        </CharString>
        <CharString name="dvBH_R">
          30 512 444 rmoveto
          -142 73 hlineto
          142 callgsubr
          -15 3 -14 84 callgsubr
          -3 11 15 vvcurveto
          27 6 20 40 41 5 -19 -28 vhcurveto
          -70 -49 vlineto
          -115 -48 -54 -89 hvcurveto
          -34 vlineto
          -89 48 -55 115 114 49 55 89 vhcurveto
          77 146 vlineto
          -34 vmoveto
          -311 -365 261 callgsubr
          71 82 47 54 43 74 11 29 rlinecurve
          -260 86 95 callsubr
          endchar
        </CharString>
        <CharString name="dvBH_RA">
          215 464 253 -24 callgsubr
          -115 -48 -54 -89 hvcurveto
          -34 vlineto
          -89 48 -55 115 114 49 55 89 vhcurveto
          77 98 vlineto
          -212 -74 95 callsubr
          endchar
        </CharString>
        <CharString name="dvBH_R_YA">
          520 251 270 173 callsubr
          26 144 callgsubr
          118 98 rmoveto
          77 96 callsubr
          -15 2 -23 84 callgsubr
          -2 21 14 54 callsubr
          -74 218 callgsubr
          -33 105 callsubr
          75 54 vlineto
          16 13 -1 -4 9 hvcurveto
          -69 vlineto
          -16 2 -15 3 -14 vhcurveto
          -236 -276 261 callgsubr
          71 82 29 34 28 41 19 33 rlinecurve
          -33 39 57 -16 68 hhcurveto
          43 31 6 12 20 hvcurveto
          -104 167 callsubr
          -551 -99 126 vlineto
          16 9 -17 -37 hvcurveto
          -53 vlineto
          -33 -9 -17 -24 -8 vhcurveto
          27 -20 -37 12 -59 hhcurveto
          147 -159 rmoveto
          35 198 callgsubr
          40 78 vvcurveto
          75 326 callsubr
          92 -335 hlineto
          -25 -17 -26 -10 -45 hhcurveto
          -78 -31 30 55 hvcurveto
          endchar
        </CharString>
        <CharString name="dvBH_VA">
          442 697 166 rmoveto
          -4 -11 -22 -4 -26 hhcurveto
          -45 -20 -19 callsubr
          -447 -195 -14 callsubr
          559 -323 rmoveto
          566 87 291 callsubr
          -83 -47 -30 -53 -19 hvcurveto
          -101 2 callgsubr
          95 -115 268 callsubr
        </CharString>
        <CharString name="dvBH_YA">
          520 251 203 94 callsubr
          166 hmoveto
          27 callsubr
          -116 -47 -53 -89 hvcurveto
          191 callgsubr
          vlineto
          325 186 -31 callgsubr
          endchar
        </CharString>
        <CharString name="dvB_BA">
          310 566 122 callsubr
          -95 vlineto
          -152 125 -65 callgsubr
          136 57 41 14 24 27 vhcurveto
          -27 31 47 -11 61 hhcurveto
          33 28 4 5 15 hvcurveto
          -67 112 -42 callsubr
          -799 -99 601 vlineto
          -338 -410 -1 callgsubr
          269 hmoveto
          -35 callgsubr
        </CharString>
        <CharString name="dvB_BHA">
          474 -35 566 rmoveto
          289 99 -289 hlineto
          547 -462 rmoveto
          -28 -7 230 callsubr
          19 27 vhcurveto
          74 75 callsubr
          48 hlineto
          -288 -167 157 callsubr
          288 267 rmoveto
          -48 hlineto
          -116 -47 -54 -88 hvcurveto
          -21 vlineto
          -145 119 -65 callgsubr
          132 52 39 12 23 28 vhcurveto
          -24 26 40 -13 57 hhcurveto
          115 47 55 89 hvcurveto
          123 97 -323 119 -42 callsubr
          -205 -242 -92 94 96 callsubr
          -21 3 330 callgsubr
          -3 22 16 156 callgsubr
          5 -19 -28 vhcurveto
          endchar
        </CharString>
        <CharString name="dvB_BH_RA">
          474 -35 566 rmoveto
          290 99 -290 hlineto
          759 -412 -24 callgsubr
          -115 -48 -54 -89 hvcurveto
          -34 vlineto
          -2 0 -2 -2 vvcurveto
          -144 118 -65 callgsubr
          132 81 49 29 51 22 vhcurveto
          -10 24 29 -5 36 hhcurveto
          114 49 55 89 hvcurveto
          77 98 vlineto
          -500 -188 157 callsubr
          288 114 95 callsubr
          endchar
        </CharString>
        <CharString name="dvB_DA">
          271 228 156 -1 callgsubr
          417 111 rmoveto
          -118 -91 hlineto
          -52 callsubr
          90 99 -759 -99 551 143 callgsubr
          -87 vlineto
          -144 118 -65 callgsubr
          136 56 39 13 24 26 vhcurveto
          -20 26 37 -10 49 hhcurveto
          30 22 3 4 16 hvcurveto
          -74 118 vlineto
          endchar
        </CharString>
        <CharString name="dvB_DHA">
          341 224 156 157 callsubr
          93 410 rmoveto
          0 -11 76 callsubr
          -6 vlineto
          -144 118 -65 callgsubr
          132 58 41 15 27 27 vhcurveto
          -27 32 48 -14 62 hhcurveto
          45 32 5 6 22 hvcurveto
          -21 callsubr
          -542 -99 hlineto
          endchar
        </CharString>
        <CharString name="dvB_DH_VA">
          587 214 callsubr
          612 341 -38 callgsubr
          -516 -99 348 150 callsubr
          -12 148 callgsubr
          61 42 17 30 27 vhcurveto
          -25 34 50 -15 68 hhcurveto
          58 47 12 12 37 hvcurveto
          -30 callgsubr
        </CharString>
        <CharString name="dvB_JA">
          492 651 337 rmoveto
          34 131 callgsubr
          99 -390 -94 callgsubr
          79 99 -973 46 callsubr
          -504 98 133 callsubr
        </CharString>
        <CharString name="dvB_JHA">
          607 224 141 rmoveto
          -58 -19 24 46 hvcurveto
          80 vlineto
          146 -119 rlineto
          -21 -10 -22 -10 -37 hhcurveto
          381 83 45 callgsubr
          -7 22 -11 12 vhcurveto
          98 -231 -104 callgsubr
          -1095 -99 681 -62 -82 hlineto
          -108 -54 -39 -97 hvcurveto
          -9 vlineto
          -13 1 -11 2 -11 vhcurveto
          -105 -78 hlineto
          -145 117 rlineto
          19 11 21 10 37 hhcurveto
          22 19 -4 0 hvcurveto
          98 vlineto
          0 -22 4 -28 -132 69 callsubr
          55 -59 132 133 40 70 84 vhcurveto
          28 vlineto
          169 100 rmoveto
          -35 -9 13 25 hvcurveto
          3 vlineto
          25 10 12 34 vhcurveto
          200 164 92 -242 hlineto
          endchar
        </CharString>
        <CharString name="dvB_J_YA">
          804 295 566 rmoveto
          99 -250 -99 vlineto
          928 -54 -26 callgsubr
          -28 -3 -34 hhcurveto
          -77 -35 30 55 hvcurveto
          39 14 callsubr
          -633 125 rmoveto
          511 hlineto
          -34 callgsubr
          -49 vlineto
          -28 -6 -17 -17 -9 vhcurveto
          53 -10 -49 30 -95 hhcurveto
          -218 -109 60 hlineto
          0 10 -16 -37 vvcurveto
          -111 vlineto
          -41 -26 -18 -46 -33 -41 12 7 -23 vhcurveto
          -49 -101 rlineto
          -12 37 56 -14 57 hhcurveto
          118 286 callgsubr
          122 vlineto
          34 131 callgsubr
          15 hlineto
          61 22 -8 -37 hvcurveto
          -79 232 callsubr
          -918 vlineto
          -305 -398 rmoveto
          -70 55 -40 132 126 57 37 73 vhcurveto
          29 vlineto
          74 -57 37 -126 -139 -48 -40 -71 vhcurveto
          265 -3 rmoveto
          10 -103 90 -17 vhcurveto
          -2 10 8 1 19 -4 rrcurveto
          40 55 -70 -35 hvcurveto
          -153 -25 rmoveto
          -11 103 -89 17 vhcurveto
          3 -9 -8 -2 -18 5 rrcurveto
          -41 -56 71 35 hvcurveto
          endchar
        </CharString>
        <CharString name="dvB_JxA">
          492 651 215 rmoveto
          122 vlineto
          34 131 callgsubr
          99 -390 -104 callgsubr
          -980 46 callsubr
          -317 -195 rmoveto
          -51 -15 70 callsubr
          249 callgsubr
          hvcurveto
          -187 293 133 callsubr
        </CharString>
        <CharString name="dvB_LA">
          494 228 156 -1 callgsubr
          633 410 rmoveto
          87 99 -983 -99 778 -84 hlineto
          -23 callsubr
          -107 -56 -57 -97 hvcurveto
          -82 -1 vlineto
          -152 125 -65 callgsubr
          136 42 34 8 13 25 vhcurveto
          -53 27 55 -26 92 -27 callsubr
          118 vlineto
          endchar
        </CharString>
        <CharString name="dvB_L_YA">
          788 214 callsubr
          734 356 -103 callsubr
          -123 130 rmoveto
          0 8 -17 -37 vvcurveto
          -54 vlineto
          -29 -7 -17 -20 -10 vhcurveto
          54 -20 -46 33 -77 298 callgsubr
          -108 -49 -57 -97 hvcurveto
          -76 148 callgsubr
          39 32 7 13 24 vhcurveto
          -52 25 52 -26 91 hhcurveto
          22 31 2 1 12 hvcurveto
          110 callgsubr
          -14 -28 0 -17 21 callsubr
          9 20 38 242 callgsubr
          -66 -61 callsubr
          -1276 -99 vlineto
          endchar
        </CharString>
        <CharString name="dvB_NA">
          430 216 396 rmoveto
          57 12 -24 -46 hvcurveto
          -61 vlineto
          -130 103 rlineto
          18 9 18 10 34 hhcurveto
          -240 vmoveto
          -54 -15 25 45 hvcurveto
          70 vlineto
          133 -105 rlineto
          -23 -8 -19 -12 -37 hhcurveto
          463 223 rmoveto
          -379 -104 callgsubr
          -918 -99 714 334 callgsubr
          -48 -36 -10 -19 -25 hvcurveto
          22 -26 -38 13 -55 hhcurveto
          -132 -48 -59 -105 344 callgsubr
          -105 48 -59 132 51 36 11 19 26 vhcurveto
          -22 25 38 -11 52 -67 callsubr
        </CharString>
        <CharString name="dvB_R">
          -160 19 -81 rmoveto
          145 hlineto
          141 143 rlineto
          61 62 41 36 79 vvcurveto
          103 vlineto
          108 -58 56 -126 -139 -48 -59 -105 vhcurveto
          -103 vlineto
          -93 44 -53 97 -13 vhcurveto
          -212 486 rmoveto
          464 99 -464 hlineto
          260 -257 rmoveto
          57 20 -24 -47 hvcurveto
          -63 vlineto
          -144 106 rlineto
          18 10 21 10 36 hhcurveto
          -234 vmoveto
          -58 -18 24 46 hvcurveto
          66 vlineto
          145 -107 rlineto
          -19 -11 -21 -10 -37 hhcurveto
          endchar
        </CharString>
        <CharString name="dvB_RA">
          39 295 122 callsubr
          -122 198 callsubr
          -98 112 -42 callsubr
          -528 -99 330 vlineto
          -69 -398 117 callsubr
        </CharString>
        <CharString name="dvB_SA">
          470 228 156 -1 callgsubr
          410 -140 -93 callsubr
          129 -269 -99 callsubr
          99 -958 -99 537 hlineto
          -92 callgsubr
          110 -118 -191 vlineto
          -145 119 rlineto
          19 10 21 10 37 hhcurveto
          15 12 -3 0 hvcurveto
          99 vlineto
          0 -16 2 -20 -132 69 callsubr
          55 -59 136 39 32 7 12 25 vhcurveto
          -51 29 59 -31 89 hhcurveto
          61 44 9 12 34 hvcurveto
          -38 callsubr
          endchar
        </CharString>
        <CharString name="dvB_SHA">
          472 -35 566 rmoveto
          289 99 -289 hlineto
          756 hmoveto
          -665 -104 callgsubr
          vlineto
          -697 -509 -1 callgsubr
          420 360 37 callgsubr
          -16 2 -17 2 -11 vhcurveto
          118 hlineto
          -2 10 -2 12 16 vvcurveto
          28 9 23 43 43 9 -21 -28 vhcurveto
          -122 vlineto
          -28 -9 -20 -43 -24 -22 6 2 -6 vhcurveto
          53 -118 -149 vlineto
          -152 125 -65 callgsubr
          136 44 35 8 16 26 vhcurveto
          -50 29 54 -32 85 hhcurveto
          59 42 9 12 36 hvcurveto
          -72 callgsubr
          endchar
        </CharString>
        <CharString name="dvB_TA">
          305 228 156 -1 callgsubr
          258 -46 rmoveto
          -43 -1 -17 11 36 vvcurveto
          177 269 callsubr
          49 27 -21 callgsubr
          -793 -99 589 -76 vlineto
          139 callsubr
          -116 309 callgsubr
          -83 vlineto
          -152 125 -65 callgsubr
          136 38 30 6 11 23 vhcurveto
          -50 17 42 -27 83 hhcurveto
          27 hlineto
          endchar
        </CharString>
        <CharString name="dvB_VA">
          285 228 156 144 callsubr
          146 -119 rlineto
          -21 -10 -20 -10 -35 hhcurveto
          306 341 rmoveto
          51 callgsubr
          -113 344 callsubr
          -93 vlineto
          -144 118 -65 callgsubr
          136 51 38 13 21 25 vhcurveto
          -23 26 39 -12 55 154 callgsubr
          -773 -99 569 vlineto
          5 -400 -84 callgsubr
        </CharString>
        <CharString name="dvB_YA">
          364 228 156 -1 callgsubr
          306 356 -102 callsubr
          -52 203 callgsubr
          -23 -127 hlineto
          -2 0 -2 -2 vvcurveto
          -145 119 -65 callgsubr
          136 75 47 24 41 26 vhcurveto
          -25 39 51 -12 59 9 callgsubr
          -853 -99 vlineto
          endchar
        </CharString>
        <CharString name="dvC">
          296 callsubr
          7 -397 rmoveto
          -5 -16 -30 -4 -23 hhcurveto
          -42 -25 197 callgsubr
          53 -51 111 29 40 4 6 21 vhcurveto
          endchar
        </CharString>
        <CharString name="dvCA">
          63 192 322 rmoveto
          46 10 -12 callgsubr
          69 101 -258 -106 67 256 callsubr
          50 -51 112 28 28 3 6 21 vhcurveto
          -65 -104 callgsubr
          -551 -99 347 277 callgsubr
          -42 -21 17 38 hvcurveto
          endchar
        </CharString>
        <CharString name="dvCH">
          123 268 489 313 callgsubr
          -155 161 callgsubr
          350 99 -611 -99 106 hlineto
          152 callsubr
          181 vlineto
          98 -61 47 -100 -39 -32 -10 0 vhcurveto
          endchar
        </CharString>
        <CharString name="dvCHA">
          123 47 375 rmoveto
          -47 12 -31 32 -17 vhcurveto
          -34 -17 -15 -33 -42 179 callgsubr
          -611 -99 93 -6 callsubr
        </CharString>
        <CharString name="dvCH_R">
          -13 callgsubr
          282 -686 -36 callsubr
          endchar
        </CharString>
        <CharString name="dvCH_RA">
          -13 callgsubr
          endchar
        </CharString>
        <CharString name="dvCH_R_YA">
          641 271 4 rmoveto
          3 hlineto
          47 -111 178 callsubr
          -59 122 rlineto
          83 21 30 50 87 vvcurveto
          181 vlineto
          14 -1 13 -1 12 vhcurveto
          163 hlineto
          36 8 -13 -28 hvcurveto
          -13 vlineto
          -31 -12 -9 -40 vhcurveto
          -66 -79 8 callsubr
          -1135 -99 93 209 callsubr
          -137 vlineto
          -47 12 -31 32 -17 vhcurveto
          -34 -17 -15 -33 -42 vvcurveto
          -26 vlineto
          -82 35 -47 84 -19 vhcurveto
          -59 -121 178 callsubr
          47 111 rlineto
          528 145 rmoveto
          -77 -22 24 44 hvcurveto
          1 vlineto
          77 40 37 78 hvcurveto
          30 240 callgsubr
          -216 66 459 137 callgsubr
          -633 363 rmoveto
          -51 callsubr
        </CharString>
        <CharString name="dvCH_YA">
          636 1003 hmoveto
          -42 callsubr
          -1124 -99 106 vlineto
          152 callsubr
          188 vlineto
          9 -1 9 -1 8 vhcurveto
          148 hlineto
          36 8 -14 -27 hvcurveto
          -4 vlineto
          -31 -12 -10 -40 vhcurveto
          -66 -81 hlineto
          -119 77 -61 129 39 38 4 6 30 vhcurveto
          -50 vlineto
          -617 496 313 callgsubr
          -162 161 callgsubr
          659 137 callgsubr
          -77 -22 207 callgsubr
          22 240 callgsubr
          -226 hlineto
          8 -22 -26 4 -29 hhcurveto
          -39 -32 -10 0 hvcurveto
          endchar
        </CharString>
        <CharString name="dvC_CA">
          312 440 322 rmoveto
          46 11 -12 callgsubr
          69 101 -226 -101 35 hlineto
          0 -7 -27 -38 vvcurveto
          -110 vlineto
          -17 1 -15 3 -14 vhcurveto
          -4 -18 -20 -2 -21 hhcurveto
          -45 -30 15 40 hvcurveto
          107 vlineto
          46 10 -12 callgsubr
          41 101 -230 -106 67 256 callsubr
          71 -51 112 58 44 11 10 26 vhcurveto
          -14 25 33 -7 42 hhcurveto
          28 28 3 6 21 hvcurveto
          -65 -104 callgsubr
          -800 -99 596 277 callgsubr
          -42 -22 17 38 hvcurveto
          endchar
        </CharString>
        <CharString name="dvC_CHA">
          414 339 375 rmoveto
          -47 12 -31 32 -17 vhcurveto
          -34 -17 -15 -33 -42 vvcurveto
          -20 vlineto
          -4 -20 -23 -4 -25 65 callgsubr
          44 34 6 7 25 vhcurveto
          -45 32 65 -20 108 hhcurveto
          170 55 51 118 hvcurveto
          89 callgsubr
          -903 -99 385 -6 callsubr
        </CharString>
        <CharString name="dvC_CH_VA">
          415 339 375 rmoveto
          311 callsubr
          -20 vlineto
          -4 -20 -23 -4 -25 65 callgsubr
          44 34 6 7 25 vhcurveto
          12 -16 16 -14 22 -10 rrcurveto
          -24 -17 -16 -25 -40 vvcurveto
          -34 vlineto
          -105 65 -44 109 32 25 3 5 22 vhcurveto
          -46 119 319 vlineto
          34 28 14 42 58 vvcurveto
          181 vlineto
          65 -16 43 -43 19 vhcurveto
          85 139 99 -903 -99 385 209 callsubr
          212 -650 rmoveto
          -52 -18 18 37 hvcurveto
          30 vlineto
          37 18 20 52 vhcurveto
          0 vlineto
          4 4 0 4 hhcurveto
          21 20 1 2 18 hvcurveto
          -137 vlineto
          -5 -21 -20 -3 -30 hhcurveto
          -94 650 rmoveto
          37 11 17 0 vhcurveto
          151 -67 hlineto
          -37 -26 -9 0 hvcurveto
          -98 vlineto
          0 20 9 33 46 18 159 callsubr
          -16 -21 -94 -95 -15 12 46 vhcurveto
          11 337 callgsubr
          -42 -9 19 28 hvcurveto
          endchar
        </CharString>
        <CharString name="dvC_MA">
          483 645 192 callsubr
          -203 -237 -94 callsubr
          203 -341 rmoveto
          83 callsubr
          -972 -99 567 313 callsubr
          -12 1 -12 2 -10 vhcurveto
          -4 -17 -20 -2 -20 65 callgsubr
          59 43 12 10 26 vhcurveto
          -14 25 33 -7 42 130 callgsubr
        </CharString>
        <CharString name="dvC_NA">
          467 716 379 rmoveto
          -379 -104 callgsubr
          -958 -99 754 274 callgsubr
          -13 2 -13 vhcurveto
          -3 -18 -21 -3 -22 hhcurveto
          -45 -30 197 callgsubr
          70 -51 111 58 43 11 11 27 vhcurveto
          -15 24 33 -8 43 -67 callsubr
        </CharString>
        <CharString name="dvC_R">
          296 callsubr
          18 -373 rmoveto
          -5 -17 -23 -5 -34 hhcurveto
          -47 -26 17 39 hvcurveto
          83 vlineto
          46 11 -12 callgsubr
          69 101 -259 -106 68 168 callgsubr
          -87 vlineto
          -94 43 -51 92 -9 vhcurveto
          -161 -142 rlineto
          147 hlineto
          144 135 rlineto
          endchar
        </CharString>
        <CharString name="dvC_RA">
          65 194 322 rmoveto
          46 11 -12 callgsubr
          68 101 -250 -106 60 168 callgsubr
          -53 vlineto
          -82 30 -49 66 -17 vhcurveto
          -122 -142 261 callgsubr
          123 142 3 1 rlineto
          -122 -104 callgsubr
          -554 -99 350 -350 vlineto
          -6 -17 -18 -3 -22 hhcurveto
          -42 -22 17 39 hvcurveto
          endchar
        </CharString>
        <CharString name="dvC_YA">
          399 568 512 -102 callsubr
          -52 203 callgsubr
          -23 -127 hlineto
          -34 7 -29 13 -24 vhcurveto
          -8 -27 -29 -6 -30 hhcurveto
          -46 -31 16 39 hvcurveto
          102 vlineto
          46 10 -12 callgsubr
          69 101 -258 -106 67 168 callgsubr
          -106 vlineto
          -104 73 -52 120 84 51 25 23 35 vhcurveto
          -15 34 41 -7 46 9 callgsubr
          -887 -99 vlineto
          endchar
        </CharString>
        <CharString name="dvCandrabindu">
          -418 -109 888 rmoveto
          48 13 26 35 35 -13 27 -48 -49 -13 -27 -35 -35 13 -26 49 hvcurveto
          78 -2 -6 callgsubr
          endchar
        </CharString>
        <CharString name="dvD">
          4 34 214 -84 callsubr
          -493 -99 285 -69 -45 hlineto
          -116 -55 -40 -109 hvcurveto
          470 -571 -36 callsubr
          endchar
        </CharString>
        <CharString name="dvDA">
          4 34 214 -84 callsubr
          -493 -99 285 -69 -45 hlineto
          -116 -55 -40 -109 hvcurveto
          endchar
        </CharString>
        <CharString name="dvDA_mvR">
          4 34 253 rmoveto
          -97 50 -52 109 22 28 3 5 20 vhcurveto
          -47 vlineto
          -104 -4 -50 -54 -101 vvcurveto
          -105 67 -53 112 33 26 2 6 34 vhcurveto
          109 vlineto
          -5 -31 -25 -3 -33 hhcurveto
          -39 -28 7 42 43 28 7 39 28 20 -3 -5 39 hvcurveto
          335 -118 -67 vlineto
          -2 -7 -20 -6 -26 hhcurveto
          -44 -12 19 30 hvcurveto
          87 182 callgsubr
        </CharString>
        <CharString name="dvDD">
          7 395 -53 callsubr
          -10 44 42 -7 55 hhcurveto
          136 65 51 106 hvcurveto
          8 -370 -36 callsubr
          endchar
        </CharString>
        <CharString name="dvDDA">
          6 395 -53 callsubr
          -10 44 42 -7 55 hhcurveto
          136 65 51 106 hvcurveto
          endchar
        </CharString>
        <CharString name="dvDDH">
          273 callgsubr
          -105 55 -57 123 308 callgsubr
          vhcurveto
          -46 callgsubr
          160 173 95 99 -497 -99 286 -66 hlineto
          152 -723 -36 callsubr
          endchar
        </CharString>
        <CharString name="dvDDHA">
          273 callgsubr
          -105 55 -57 123 308 callgsubr
          vhcurveto
          -46 callgsubr
          160 173 95 99 -497 -99 286 -66 hlineto
          endchar
        </CharString>
        <CharString name="dvDDH_DDHA">
          37 289 callsubr
          -46 13 -35 25 -26 vhcurveto
          -27 -23 -13 -35 -46 vvcurveto
          -138 vlineto
          -102 63 -52 339 callsubr
          89 264 callsubr
          -9 -34 vhcurveto
          -4 vlineto
          -32 -11 -23 -58 -59 -11 25 32 vhcurveto
          131 vlineto
          43 13 18 50 vhcurveto
          9 hlineto
          123 60 49 101 hvcurveto
          267 callgsubr
          22 28 17 -9 -34 vhcurveto
          -4 222 callsubr
          117 99 -526 -99 292 -66 hlineto
          endchar
        </CharString>
        <CharString name="dvDDH_R">
          9 407 -324 -36 callsubr
          -77 824 257 callgsubr
          -68 23 -49 51 -25 vhcurveto
          -64 -131 178 callsubr
          47 111 rlineto
          0 4 vlineto
          47 -111 178 callsubr
          -64 132 rlineto
          46 25 21 46 66 vvcurveto
          -46 callgsubr
          160 173 95 99 -497 -99 286 -66 hlineto
          endchar
        </CharString>
        <CharString name="dvDDH_RA">
          273 callgsubr
          -68 23 -48 49 -25 vhcurveto
          -62 -128 178 callsubr
          45 107 rlineto
          1 0 0 1 hhcurveto
          6 hlineto
          45 -107 178 callsubr
          -63 129 rlineto
          46 25 20 45 66 vvcurveto
          -46 callgsubr
          160 173 95 99 -497 -99 286 -66 hlineto
          endchar
        </CharString>
        <CharString name="dvDDH_VA">
          40 289 callsubr
          -56 19 -37 38 -23 vhcurveto
          -10 -12 -6 -16 -21 vvcurveto
          -22 -11 -35 -17 -80 33 -46 88 hvcurveto
          17 254 callsubr
          -3 1 rlineto
          24 22 11 32 44 vvcurveto
          267 callgsubr
          24 26 17 -12 -29 vhcurveto
          -6 222 callsubr
          119 99 -528 -99 292 -66 hlineto
          -69 -544 289 callgsubr
          9 vhcurveto
          -1 8 9 0 9 hhcurveto
          16 15 1 1 13 hvcurveto
          -2 -24 -1 -26 -23 vvcurveto
          -4 -7 -13 -58 325 callgsubr
        </CharString>
        <CharString name="dvDDH_YA">
          526 218 -5 rmoveto
          308 callgsubr
          hvcurveto
          -46 callgsubr
          328 hlineto
          36 9 -13 -28 hvcurveto
          -10 vlineto
          -31 -12 -10 -41 vhcurveto
          -65 -81 8 callsubr
          -1014 -99 286 -66 -44 vlineto
          -117 -50 -45 -104 hvcurveto
          -194 vlineto
          -105 55 -57 123 vhcurveto
          459 154 rmoveto
          -78 -21 207 callgsubr
          28 240 callgsubr
          -165 66 408 137 callgsubr
          endchar
        </CharString>
        <CharString name="dvDDHxA">
          273 callgsubr
          -105 55 -57 123 308 callgsubr
          vhcurveto
          24 vlineto
          105 -49 39 -90 -29 -19 -8 0 vhcurveto
          -105 vlineto
          0 12 8 20 25 17 -9 -34 vhcurveto
          -14 vlineto
          -35 -11 -21 -51 -51 -10 23 35 vhcurveto
          186 185 callsubr
          43 vhcurveto
          160 173 95 99 -497 -99 286 -66 hlineto
          -31 -692 -56 callgsubr
          endchar
        </CharString>
        <CharString name="dvDD_DDA">
          27 31 81 rmoveto
          13 -3 16 -3 16 -3 rrcurveto
          -8 -17 -3 -18 -19 vvcurveto
          -102 77 -21 83 vhcurveto
          20 hlineto
          39 11 -13 -25 1 hvcurveto
          -8 vlineto
          -32 -23 -10 -61 -52 -70 10 9 -43 vhcurveto
          -98 vlineto
          -11 47 60 -8 58 hhcurveto
          140 66 41 95 hvcurveto
          206 callsubr
          -34 -11 9 25 26 12 11 33 hvcurveto
          0 vlineto
          133 2 62 41 93 vvcurveto
          206 callsubr
          -32 -11 9 24 -1 hvcurveto
          4 vlineto
          25 12 9 32 vhcurveto
          171 155 97 99 -514 -99 294 246 callsubr
          39 12 -12 -24 276 callsubr
        </CharString>
        <CharString name="dvDD_DDHA">
          26 31 81 rmoveto
          11 -3 13 -2 13 -3 rrcurveto
          -17 -25 -9 -32 -37 vvcurveto
          -115 vlineto
          -101 63 -53 339 callsubr
          90 264 callsubr
          -11 -30 vhcurveto
          -6 vlineto
          -32 -11 -23 -58 -59 -11 24 32 vhcurveto
          132 vlineto
          39 10 19 37 3 vhcurveto
          0 2 vlineto
          138 67 39 97 hvcurveto
          206 callsubr
          -33 -11 9 25 26 12 11 32 hvcurveto
          171 155 97 99 -514 -99 294 -66 -42 hlineto
          -118 -55 -40 -88 hvcurveto
          -6 vlineto
          -98 66 -22 104 vhcurveto
          25 hlineto
          39 12 -13 -23 276 callsubr
        </CharString>
        <CharString name="dvDD_R">
          3 389 -53 callsubr
          18 -4 17 -3 18 -3 -57 -117 rcurveline
          121 hlineto
          46 110 6 1 46 -111 178 callsubr
          -65 135 rlineto
          48 25 23 43 64 vvcurveto
          5 -471 -36 callsubr
          endchar
        </CharString>
        <CharString name="dvDD_RA">
          7 395 -53 callsubr
          16 -4 16 64 callsubr
          endchar
        </CharString>
        <CharString name="dvDD_VA">
          34 33 79 rmoveto
          17 -4 21 -4 23 -3 rrcurveto
          -4 -8 -2 -11 -12 vvcurveto
          -22 -11 -35 -17 -80 33 -46 87 hvcurveto
          18 254 callsubr
          -4 1 rlineto
          26 22 13 32 42 vvcurveto
          206 callsubr
          -33 -11 9 23 hvcurveto
          3 vlineto
          25 11 11 33 vhcurveto
          171 155 97 99 -521 -99 301 246 callsubr
          40 11 -13 -25 hvcurveto
          -7 vlineto
          -37 -31 -6 -53 -52 -84 9 10 -44 vhcurveto
          156 -221 289 callgsubr
          8 vhcurveto
          2 2 0 2 hhcurveto
          24 21 1 3 20 hvcurveto
          -2 -25 -2 -29 -25 vvcurveto
          -4 -7 -13 -54 325 callgsubr
        </CharString>
        <CharString name="dvDD_YA">
          521 194 -10 rmoveto
          136 65 51 106 hvcurveto
          15 vlineto
          97 -53 44 -117 vhcurveto
          -23 hlineto
          -35 -9 16 25 hvcurveto
          18 vlineto
          24 10 16 34 vhcurveto
          328 hlineto
          36 9 -13 -27 hvcurveto
          -20 vlineto
          -31 -12 -10 -41 vhcurveto
          -65 -81 8 callsubr
          -1009 -99 282 -62 -45 vlineto
          99 callsubr
          -53 -49 8 9 -39 vhcurveto
          -108 vlineto
          -10 44 42 -7 55 hhcurveto
          478 159 rmoveto
          -78 -21 207 callgsubr
          38 vlineto
          96 -50 35 -113 vhcurveto
          -162 62 405 137 callgsubr
          endchar
        </CharString>
        <CharString name="dvDDxA">
          7 220 -191 244 callgsubr
          175 353 -15 callsubr
          -10 44 42 -7 55 hhcurveto
          136 65 51 106 hvcurveto
          endchar
        </CharString>
        <CharString name="dvDH">
          -132 352 177 rmoveto
          -8 -27 -45 -4 -31 hhcurveto
          -53 -35 15 48 hvcurveto
          35 -20 callsubr
          -53 vlineto
          -94 68 -61 124 40 45 5 7 32 vhcurveto
          endchar
        </CharString>
        <CharString name="dvDHA">
          83 60 566 rmoveto
          0 -11 76 callsubr
          -53 vlineto
          -98 66 -57 124 45 32 5 6 22 vhcurveto
          -21 callsubr
          -285 -99 hlineto
          endchar
        </CharString>
        <CharString name="dvDH_MA">
          508 556 204 54 callgsubr
          -630 -99 225 212 callgsubr
          -115 170 callgsubr
          -99 vlineto
          -8 0 -8 1 -7 vhcurveto
          -7 -28 -31 -5 -34 hhcurveto
          -60 -32 15 49 hvcurveto
          34 -20 callsubr
          -52 vlineto
          -94 65 -62 139 64 47 15 11 37 vhcurveto
          -18 26 37 -10 49 hhcurveto
          116 47 55 88 hvcurveto
          141 89 vlineto
          endchar
        </CharString>
        <CharString name="dvDH_NA">
          485 734 379 rmoveto
          -379 119 -42 callsubr
          -629 -99 424 -78 -235 vlineto
          -113 -46 -55 -96 hvcurveto
          -131 vlineto
          -11 1 -10 1 -10 vhcurveto
          -6 -28 -29 -4 -32 hhcurveto
          -60 -32 15 48 hvcurveto
          35 -20 callsubr
          -53 vlineto
          -94 65 -61 139 61 46 13 11 36 vhcurveto
          -18 25 36 -10 48 138 callsubr
          113 0 callgsubr
          -2 5 vhcurveto
          -112 hmoveto
          3 -8 5 277 callsubr
          -37 202 callsubr
          126 123 callsubr
          endchar
        </CharString>
        <CharString name="dvDH_N_YA">
          813 541 377 rmoveto
          3 -8 5 -26 -30 vvcurveto
          -106 335 callgsubr
          124 -22 callsubr
          37 vhcurveto
          479 135 -102 callsubr
          -33 -9 -17 -24 -8 vhcurveto
          57 -23 -54 28 -77 hhcurveto
          -177 109 callgsubr
          -128 vlineto
          -10 1 -10 1 -10 vhcurveto
          -7 -29 -31 -4 -34 hhcurveto
          -60 -32 15 48 hvcurveto
          35 -20 callsubr
          -53 vlineto
          -94 65 -61 139 62 48 13 11 37 vhcurveto
          -18 25 36 -10 48 138 callsubr
          110 0 callgsubr
          -1 6 vhcurveto
          36 hlineto
          40 20 -15 213 callgsubr
          -936 -99 vlineto
          endchar
        </CharString>
        <CharString name="dvDH_R">
          -132 43 241 rmoveto
          236 callgsubr
          114 vlineto
          324 callgsubr
          21 16 callgsubr
          32 86 callsubr
          63 99 -275 145 callgsubr
          -36 vlineto
          -46 12 -31 31 -18 vhcurveto
          -34 -16 -15 -33 -52 vvcurveto
          endchar
        </CharString>
        <CharString name="dvDH_RA">
          86 336 196 rmoveto
          62 callgsubr
          74 99 -289 -99 94 210 callsubr
          -43 vlineto
          -45 12 -32 31 -18 vhcurveto
          114 callgsubr
        </CharString>
        <CharString name="dvDH_VA">
          329 578 497 -38 callgsubr
          -259 -99 91 150 callsubr
          -52 vlineto
          -94 65 -61 139 58 47 12 12 37 vhcurveto
          -30 callgsubr
        </CharString>
        <CharString name="dvDH_YA">
          409 578 512 -102 callsubr
          -52 203 callgsubr
          -23 -127 hlineto
          -30 6 -26 10 -23 vhcurveto
          -10 -36 -39 -6 -42 callgsubr
          -259 -99 91 hlineto
          78 callsubr
        </CharString>
        <CharString name="dvD_BA">
          39 211 121 rmoveto
          19 40 1 10 22 344 callgsubr
          -116 91 rlineto
          4 9 11 2 15 hhcurveto
          -169 130 rmoveto
          -45 13 -31 25 -21 vhcurveto
          -24 -19 -16 -31 -48 vvcurveto
          -54 vlineto
          -101 49 -54 133 133 52 58 101 1 vhcurveto
          305 -116 -95 vlineto
          -4 -17 -25 -4 -24 hhcurveto
          -52 -14 22 32 hvcurveto
          74 341 callsubr
          93 99 -527 272 callsubr
          -404 rmoveto
          -62 -8 28 38 hvcurveto
          46 vlineto
          123 -99 rlineto
          -8 -11 -16 -5 -26 hhcurveto
          endchar
        </CharString>
        <CharString name="dvD_BHA">
          145 219 -84 rmoveto
          9 -14 4 -14 -23 -16 -23 -17 -13 8 -10 14 -5 7 rcurveline
          -10 15 -3 14 22 17 28 20 rcurveline
          -21 284 rmoveto
          -76 31 -48 65 -18 vhcurveto
          -49 -35 -34 47 -39 55 -52 11 -65 -48 rlinecurve
          -63 -45 -8 -54 39 -54 15 -22 rcurveline
          69 50 -15 20 -10 14 -3 12 22 17 rlinecurve
          22 15 10 -8 11 -13 33 -46 rcurveline
          -28 -20 -65 -47 -6 -53 36 -49 rlinecurve
          9 -12 36 -50 51 -13 66 48 rlinecurve
          65 46 5 53 -36 50 -25 36 rcurveline
          131 93 3 1 3 0 3 1 rlinecurve
          -78 118 273 -118 -90 vlineto
          -4 -15 -14 -3 -22 hhcurveto
          -44 -14 18 30 hvcurveto
          106 vlineto
          29 9 17 45 331 callsubr
          90 99 -633 -99 425 172 callsubr
          endchar
        </CharString>
        <CharString name="dvD_B_RA">
          34 211 158 rmoveto
          20 39 2 10 23 hvcurveto
          -100 vlineto
          -115 83 rlineto
          3 9 10 2 14 hhcurveto
          -169 130 rmoveto
          -45 13 -32 25 -20 vhcurveto
          -24 -19 -15 -31 -48 vvcurveto
          -40 vlineto
          -83 32 -43 76 -14 vhcurveto
          -99 -114 rlineto
          133 hlineto
          106 122 1 1 2 0 1 1 rlinecurve
          -76 115 466 -115 -56 vlineto
          -6 -16 -23 -6 -28 hhcurveto
          -52 -14 22 32 hvcurveto
          37 341 callsubr
          89 99 -523 272 callsubr
          -353 rmoveto
          -62 -8 27 38 hvcurveto
          36 vlineto
          122 -89 rlineto
          -8 -11 -16 -4 -25 hhcurveto
          endchar
        </CharString>
        <CharString name="dvD_DA">
          8 40 363 rmoveto
          -45 14 -29 26 -17 vhcurveto
          -26 -18 -14 -29 -45 vvcurveto
          -51 vlineto
          -89 49 -50 109 35 27 5 2 7 vhcurveto
          -64 117 228 -117 -67 vlineto
          -2 -6 -21 -5 -26 hhcurveto
          -44 -12 17 29 hvcurveto
          43 vlineto
          29 235 callgsubr
          107 99 -107 hlineto
          -44 -9 17 28 hvcurveto
          5 vlineto
          28 235 callgsubr
          163 150 87 99 -496 -99 290 -58 -59 hlineto
          -109 -47 -40 -94 hvcurveto
          endchar
        </CharString>
        <CharString name="dvD_DHA">
          183 220 214 rmoveto
          340 callgsubr
          -51 -32 8 42 vhcurveto
          214 callgsubr
          18 92 -18 121 callsubr
          -74 118 269 -118 -91 vlineto
          -52 callsubr
          83 99 -672 -99 471 143 callgsubr
          endchar
        </CharString>
        <CharString name="dvD_GA">
          20 45 223 rmoveto
          -59 19 -43 39 -24 vhcurveto
          -53 336 callsubr
          -101 vlineto
          0 18 -3 22 106 34 39 104 vhcurveto
          40 vlineto
          20 1 23 4 16 5 rrcurveto
          -244 118 440 -118 -96 vlineto
          -1 -7 -18 -5 -28 hhcurveto
          -44 -12 19 30 hvcurveto
          117 vlineto
          29 9 17 45 331 callsubr
          95 99 -509 -99 296 172 callsubr
          endchar
        </CharString>
        <CharString name="dvD_GHA">
          187 205 2 rmoveto
          -51 -32 8 42 hvcurveto
          214 callgsubr
          53 -72 hlineto
          340 callgsubr
          vhcurveto
          242 70 rmoveto
          -74 118 269 -118 -91 vlineto
          -52 callsubr
          87 99 -676 -99 471 -69 -45 hlineto
          -105 -55 -33 -86 -9 hvcurveto
          -55 121 callsubr
          endchar
        </CharString>
        <CharString name="dvD_G_RA">
          12 386 -181 rmoveto
          488 -118 -75 vlineto
          -2 -7 -19 -4 -27 hhcurveto
          -44 -12 18 30 hvcurveto
          70 vlineto
          29 10 17 44 331 callsubr
          90 99 -500 -99 292 172 callsubr
          -78 vlineto
          -55 16 -40 33 -25 vhcurveto
          -43 336 callsubr
          -100 vlineto
          0 15 -4 25 106 34 39 104 vhcurveto
          24 vlineto
          21 26 3 8 21 hvcurveto
          -103 vlineto
          -212 -250 rlineto
          123 hlineto
          14 17 44 50 29 37 13 30 rlinecurve
          2 hlineto
          -4 -14 0 -22 -21 vvcurveto
          -37 vlineto
          endchar
        </CharString>
        <CharString name="dvD_MA">
          252 389 98 rmoveto
          203 -112 -70 vlineto
          -1 -4 -22 -10 -36 hhcurveto
          -52 -11 22 29 hvcurveto
          69 vlineto
          29 9 21 52 vhcurveto
          170 176 121 -468 hlineto
          -101 vmoveto
          -133 115 702 87 99 -741 -99 300 -69 -52 vlineto
          -124 -55 -43 -110 hvcurveto
          -73 vlineto
          -97 53 -57 113 22 40 4 9 15 vhcurveto
          -192 111 59 vlineto
          endchar
        </CharString>
        <CharString name="dvD_NA">
          5 34 226 rmoveto
          -74 29 -39 62 -14 vhcurveto
          -41 -32 -80 -64 -8 -69 46 -49 rlinecurve
          30 -33 43 -1 0 vvcurveto
          73 66 rlineto
          0 -28 5 -15 16 vhcurveto
          -18 20 -3 24 33 28 104 87 rcurveline
          -99 118 275 -118 -85 vlineto
          -4 -15 -14 -3 -22 hhcurveto
          -44 -14 19 30 hvcurveto
          114 182 callgsubr
        </CharString>
        <CharString name="dvD_R">
          10 513 -228 -36 callsubr
          -350 450 rmoveto
          -74 29 -39 62 -14 vhcurveto
          -103 -160 rlineto
          129 hlineto
          107 166 rlineto
          1 1 0 1 1 hvcurveto
          -104 117 269 -117 -58 vlineto
          -21 -7 -10 -11 -36 hhcurveto
          -44 -12 19 30 hvcurveto
          118 226 callsubr
          -500 -99 291 -69 -44 187 callsubr
          endchar
        </CharString>
        <CharString name="dvD_RA">
          10 40 228 12 callsubr
          -499 -99 291 172 callsubr
          endchar
        </CharString>
        <CharString name="dvD_VA">
          11 213 156 callsubr
          -54 377 rmoveto
          29 9 17 44 331 callsubr
          91 99 -500 -99 291 172 callsubr
          112 callgsubr
        </CharString>
        <CharString name="dvD_YA">
          80 533 665 rmoveto
          -568 -99 162 -60 hlineto
          -55 -7 -35 -25 -74 vvcurveto
          -21 vlineto
          -40 14 -32 33 -19 vhcurveto
          -31 -21 -13 -34 -41 vvcurveto
          -19 vlineto
          -94 52 -56 131 44 42 6 7 28 vhcurveto
          -36 110 566 86 vlineto
          -204 hmoveto
          -426 vlineto
          -7 -21 -36 -4 -30 hhcurveto
          -61 -23 10 49 hvcurveto
          6 vlineto
          28 13 22 43 vhcurveto
          33 94 -41 194 callsubr
          10 vlineto
          31 12 14 38 vhcurveto
          40 126 hlineto
          endchar
        </CharString>
        <CharString name="dvE">
          19 372 122 rmoveto
          -10 -34 -38 -8 -51 hhcurveto
          -64 -18 24 45 hvcurveto
          393 81 callsubr
          -507 -99 84 -397 vlineto
          -117 59 -57 137 56 43 10 10 28 vhcurveto
          endchar
        </CharString>
        <CharString name="dvEcandra">
          19 301 885 -6 callgsubr
          -47 -763 rmoveto
          -10 -35 -38 -8 -50 hhcurveto
          -62 -19 24 43 hvcurveto
          395 81 callsubr
          -507 -99 84 -399 vlineto
          315 callsubr
          endchar
        </CharString>
        <CharString name="dvEight">
          11 callgsubr
        </CharString>
        <CharString name="dvEyelash">
          -151 -35 566 rmoveto
          464 99 -464 hlineto
          464 -320 rmoveto
          -204 hlineto
          -56 -32 3 48 hvcurveto
          -118 -12 hlineto
          -106 78 -35 129 vhcurveto
          203 hlineto
          endchar
        </CharString>
        <CharString name="dvEyelash_HA">
          236 255 145 rmoveto
          -96 58 -56 130 62 53 6 10 45 vhcurveto
          100 vlineto
          -9 -48 -39 -4 -65 hhcurveto
          -57 -21 19 37 hvcurveto
          30 121 callgsubr
          -724 -99 510 -59 -59 hlineto
          -108 -53 -36 -91 hvcurveto
          -2 -41 vlineto
          -57 -32 5 48 hvcurveto
          -118 -11 hlineto
          -107 79 -37 128 vhcurveto
          78 5 hlineto
          3 -2 3 -2 3 -2 rrcurveto
          -30 -19 -16 -30 -48 vvcurveto
          endchar
        </CharString>
        <CharString name="dvEyelash_YA">
          307 476 512 -13 callsubr
          -24 -28 -3 -33 hhcurveto
          -78 -34 27 56 hvcurveto
          18 325 callsubr
          -122 148 rmoveto
          -34 callgsubr
          -71 317 callgsubr
          -50 hlineto
          -56 -33 5 48 hvcurveto
          -117 -12 hlineto
          -106 78 -38 128 vhcurveto
          27 -19 hlineto
          -122 93 -45 129 37 32 -43 callgsubr
          -795 -99 vlineto
          endchar
        </CharString>
        <CharString name="dvFive">
          58 callsubr
        </CharString>
        <CharString name="dvFour">
          113 callsubr
        </CharString>
        <CharString name="dvG">
          -161 222 566 rmoveto
          71 99 -328 34 callsubr
          endchar
        </CharString>
        <CharString name="dvGA">
          72 524 665 rmoveto
          -559 34 callsubr
          236 99 223 callgsubr
        </CharString>
        <CharString name="dvGH">
          -136 345 177 rmoveto
          -8 -25 -42 -4 -31 hhcurveto
          -54 8 callgsubr
          155 99 -367 188 callsubr
          124 40 43 5 7 30 vhcurveto
          endchar
        </CharString>
        <CharString name="dvGHA">
          83 536 665 rmoveto
          -571 -99 91 hlineto
          35 callsubr
        </CharString>
        <CharString name="dvGH_MA">
          503 254 165 rmoveto
          -61 8 callgsubr
          375 313 callsubr
          -9 0 -8 1 -8 vhcurveto
          -6 -27 -29 -4 -31 hhcurveto
          298 39 -40 callgsubr
          -992 188 callsubr
          139 62 48 13 11 36 vhcurveto
          -17 26 36 -9 48 130 callgsubr
        </CharString>
        <CharString name="dvGH_NA">
          485 254 165 rmoveto
          -61 8 callgsubr
          558 174 callsubr
          -131 vlineto
          -11 1 -10 1 -10 vhcurveto
          -6 -28 -30 -4 -31 hhcurveto
          481 214 rmoveto
          -379 -104 callgsubr
          -974 -99 91 vlineto
          114 callsubr
          139 60 48 13 11 36 vhcurveto
          -19 25 36 -9 47 -67 callsubr
        </CharString>
        <CharString name="dvGH_R">
          -135 343 201 rmoveto
          324 callgsubr
          20 105 callgsubr
          1 -9 19 28 vvcurveto
          33 86 callsubr
          159 99 -371 145 callgsubr
          -37 88 callsubr
          -38 vlineto
          236 callgsubr
          endchar
        </CharString>
        <CharString name="dvGH_RA">
          86 540 665 rmoveto
          -575 -99 94 210 callsubr
          -43 vlineto
          -45 320 callsubr
          -20 vlineto
          -80 46 -56 88 -15 vhcurveto
          -138 -153 rlineto
          148 hlineto
          145 159 rlineto
          0 1 0 0 vhcurveto
          -109 -99 callsubr
          vlineto
          -204 hmoveto
          -370 vlineto
          62 callgsubr
          endchar
        </CharString>
        <CharString name="dvGH_YA">
          404 254 171 rmoveto
          -61 -32 15 50 hvcurveto
          31 -19 callgsubr
          42 86 callsubr
          274 hlineto
          60 callgsubr
          -31 6 -26 11 -23 vhcurveto
          -9 -35 -37 -6 -31 hhcurveto
          319 341 -103 callsubr
          198 -436 175 callsubr
          -892 -99 91 vlineto
          140 callsubr
          -46 vlineto
          -45 320 callsubr
          -49 vlineto
          -95 65 -61 139 74 80 20 21 42 vhcurveto
          -14 34 40 -7 45 60 callsubr
          vlineto
          endchar
        </CharString>
        <CharString name="dvG_BA">
          302 558 122 callsubr
          -134 vlineto
          36 callsubr
          -791 169 callgsubr
          vlineto
          -91 callgsubr
          236 336 vlineto
          -69 -410 rmoveto
          -35 callgsubr
        </CharString>
        <CharString name="dvG_BHA">
          476 222 566 rmoveto
          39 99 -296 34 callsubr
          293 -127 -14 callsubr
          100 vmoveto
          -49 hlineto
          -116 -47 -54 -88 hvcurveto
          -81 -64 callsubr
        </CharString>
        <CharString name="dvG_BH_YA">
          767 222 566 rmoveto
          32 99 -289 34 callsubr
          276 -127 94 callsubr
          146 hmoveto
          39 20 -8 -30 hvcurveto
          -22 232 callsubr
          -551 -99 144 vlineto
          -34 callgsubr
          -54 vlineto
          -43 -15 -16 -45 -5 vhcurveto
          22 -21 -35 10 -53 hhcurveto
          -36 91 158 callsubr
          -21 3 330 callgsubr
          -3 226 callgsubr
          -88 218 callgsubr
          191 callgsubr
          vlineto
          325 186 39 callsubr
          endchar
        </CharString>
        <CharString name="dvG_DA">
          277 306 214 -84 callsubr
          -765 34 callsubr
          236 300 -69 -45 vlineto
          193 callgsubr
          endchar
        </CharString>
        <CharString name="dvG_DHA">
          352 329 566 rmoveto
          0 -11 76 callsubr
          -53 vlineto
          -98 66 -57 124 45 32 5 6 22 vhcurveto
          -21 callsubr
          -554 34 callsubr
          236 vlineto
          endchar
        </CharString>
        <CharString name="dvG_DH_VA">
          598 847 497 -38 callgsubr
          -528 133 callgsubr
          -44 vlineto
          -46 320 callsubr
          -52 vlineto
          -94 65 -61 139 58 47 12 12 37 vhcurveto
          -30 callgsubr
        </CharString>
        <CharString name="dvG_DH_YA">
          677 847 512 -102 callsubr
          -52 203 callgsubr
          -23 -127 hlineto
          -30 6 -26 10 -23 vhcurveto
          -10 -36 -39 -6 -42 callgsubr
          -528 -99 139 -226 hlineto
          -34 -19 -17 -37 vhcurveto
          -14 -17 2 -1 hhcurveto
          -113 vlineto
          -1 1 32 -2 16 hhcurveto
          97 60 52 103 hvcurveto
          236 103 vlineto
          78 callsubr
        </CharString>
        <CharString name="dvG_GA">
          323 776 665 rmoveto
          -811 34 callsubr
          236 134 -226 vlineto
          -91 callgsubr
          236 99 223 callgsubr
        </CharString>
        <CharString name="dvG_GHA">
          352 805 665 rmoveto
          -840 -99 139 -226 hlineto
          -34 -19 -17 -37 vhcurveto
          -14 -17 2 -1 hhcurveto
          -113 vlineto
          -1 1 32 -2 16 hhcurveto
          97 60 52 103 hvcurveto
          236 103 vlineto
          35 callsubr
        </CharString>
        <CharString name="dvG_JA">
          406 566 274 callsubr
          85 99 -894 34 callsubr
          236 434 -78 -321 -108 102 vlineto
          0 11 -17 165 callsubr
          -29 -78 callsubr
          endchar
        </CharString>
        <CharString name="dvG_LA">
          486 301 174 rmoveto
          -106 callgsubr
          13 20 41 22 18 -5 -3 5 vhcurveto
          -373 167 callsubr
          -975 169 callgsubr
          vlineto
          -91 callgsubr
          236 513 -84 vlineto
          -23 callsubr
          -107 -56 -57 -97 hvcurveto
          endchar
        </CharString>
        <CharString name="dvG_MA">
          448 496 204 -40 callgsubr
          -936 34 callsubr
          236 274 -125 -49 vlineto
          -82 callgsubr
          90 vlineto
          endchar
        </CharString>
        <CharString name="dvG_NA">
          445 694 379 rmoveto
          -379 -104 callgsubr
          -933 169 callgsubr
          vlineto
          -91 callgsubr
          236 472 -78 -236 vlineto
          -113 -45 -55 -96 hvcurveto
          -49 callsubr
        </CharString>
        <CharString name="dvG_NNA">
          500 655 566 rmoveto
          95 -89 callgsubr
          -989 34 callsubr
          236 97 -305 vlineto
          26 callsubr
          -118 305 rmoveto
          -10 callsubr
          304 vlineto
          endchar
        </CharString>
        <CharString name="dvG_N_YA">
          759 491 379 rmoveto
          -107 callgsubr
          475 133 181 callgsubr
          -123 321 callgsubr
          -8 87 callgsubr
          92 -58 130 36 33 4 5 22 vhcurveto
          -95 -99 callsubr
          99 -1248 169 callgsubr
          vlineto
          -91 callgsubr
          236 vlineto
          endchar
        </CharString>
        <CharString name="dvG_R">
          72 callgsubr
          endchar
        </CharString>
        <CharString name="dvG_RA">
          55 callgsubr
          endchar
        </CharString>
        <CharString name="dvG_R_YA">
          370 542 512 -26 callgsubr
          -28 -3 -34 79 callgsubr
          -122 130 rmoveto
          173 callgsubr
          -72 vhcurveto
          -24 -81 hlineto
          -255 -312 261 callgsubr
          59 71 36 43 24 33 18 31 rlinecurve
          -62 35 74 -30 92 217 callsubr
          119 -42 callsubr
          -862 -99 139 -190 vlineto
          -33 -19 -18 -37 vhcurveto
          -14 -17 2 -1 hhcurveto
          -113 vlineto
          1 32 -3 16 hhcurveto
          97 60 52 104 hvcurveto
          199 vlineto
          endchar
        </CharString>
        <CharString name="dvG_SA">
          477 645 16 -93 callsubr
          129 -269 -99 callsubr
          99 -965 34 callsubr
          236 287 -71 callsubr
          -38 callsubr
          endchar
        </CharString>
        <CharString name="dvG_VA">
          284 533 497 rmoveto
          51 callgsubr
          -113 -47 -56 -96 hvcurveto
          -146 vlineto
          -62 callgsubr
          -772 169 callgsubr
          vlineto
          -91 callgsubr
          236 311 vlineto
          5 -400 -84 callgsubr
        </CharString>
        <CharString name="dvG_YA">
          370 539 512 -102 callsubr
          -52 203 callgsubr
          -23 -127 hlineto
          -75 callsubr
          -858 169 callgsubr
          vlineto
          -91 callgsubr
          236 vlineto
          endchar
        </CharString>
        <CharString name="dvGx">
          -161 222 566 rmoveto
          71 99 -328 34 callsubr
          -106 -352 -56 callgsubr
          endchar
        </CharString>
        <CharString name="dvGxA">
          78 121 -23 -56 callgsubr
          409 688 rmoveto
          -559 34 callsubr
          236 99 223 callgsubr
        </CharString>
        <CharString name="dvGx_R">
          72 callgsubr
          114 -484 -56 callgsubr
          endchar
        </CharString>
        <CharString name="dvGx_RA">
          55 callgsubr
          69 -161 -56 callgsubr
          endchar
        </CharString>
        <CharString name="dvH">
          22 41 150 58 callgsubr
          -510 -99 296 -59 -58 hlineto
          24 callgsubr
          379 -401 -36 callsubr
          endchar
        </CharString>
        <CharString name="dvHA">
          22 41 150 58 callgsubr
          -510 -99 296 -59 -58 hlineto
          24 callgsubr
          endchar
        </CharString>
        <CharString name="dvHA_mU">
          22 264 -7 rmoveto
          38 13 -11 -36 -36 -13 -11 -40 hvcurveto
          -64 hlineto
          -39 -14 7 43 -36 hvcurveto
          -20 22 rlineto
          -133 hlineto
          68 -82 rlineto
          -68 56 45 -23 59 hhcurveto
          97 hlineto
          100 45 41 108 111 -47 38 -97 hvcurveto
          -45 hlineto
          -57 -21 19 37 hvcurveto
          30 -48 callsubr
          -510 -99 296 -59 -58 hlineto
          215 callsubr
          -97 59 -56 137 1 vhcurveto
          endchar
        </CharString>
        <CharString name="dvHA_mUU">
          16 36 145 rmoveto
          -59 21 -35 43 -18 vhcurveto
          -19 -18 -9 -26 -36 vvcurveto
          -96 45 -36 89 26 57 4 0 vhcurveto
          93 vlineto
          0 -53 -4 -19 -26 -13 11 28 29 10 11 28 vhcurveto
          25 hlineto
          46 13 1 -44 36 hvcurveto
          97 -121 rlineto
          131 hlineto
          -145 183 rlineto
          68 -55 -44 16 -66 hhcurveto
          -22 hlineto
          304 callsubr
          10 19 43 vhcurveto
          43 hlineto
          37 7 -13 -31 hvcurveto
          -20 105 30 vlineto
          88 -37 44 -99 vhcurveto
          -65 hlineto
          -33 -11 11 23 hvcurveto
          10 309 callsubr
          32 vhcurveto
          177 161 96 99 -505 -99 291 -59 -59 hlineto
          -109 -52 -36 -91 hvcurveto
          -17 vlineto
          -45 17 -27 29 -16 vhcurveto
          -30 -19 -16 -30 -48 vvcurveto
          endchar
        </CharString>
        <CharString name="dvHA_mvR">
          102 152 200 rmoveto
          25 11 14 35 vhcurveto
          146 hlineto
          25 9 -4 -23 -22 -9 -5 -25 hvcurveto
          -2 hlineto
          -82 -59 -26 -99 -113 81 -16 94 52 46 7 7 26 hvcurveto
          94 vlineto
          -6 -31 -36 -5 -42 hhcurveto
          -63 -18 5 27 21 11 6 21 hvcurveto
          8 hlineto
          93 45 39 86 86 -45 36 -93 hvcurveto
          -150 hlineto
          -32 -12 11 23 hvcurveto
          3 309 callsubr
          32 vhcurveto
          237 161 120 99 -591 -99 352 -59 -114 hlineto
          -109 -52 -36 -91 hvcurveto
          -14 vlineto
          -45 19 -24 23 -12 vhcurveto
          -23 -12 -19 -21 -48 vvcurveto
          -252 vlineto
          -113 83 -59 130 59 48 8 11 36 vhcurveto
          93 vlineto
          -12 -41 -36 -7 -58 hhcurveto
          -63 -48 22 61 hvcurveto
          endchar
        </CharString>
        <CharString name="dvH_LA">
          630 445 174 rmoveto
          -106 callgsubr
          13 20 41 22 18 -5 -3 5 vhcurveto
          -373 167 callsubr
          -714 -99 509 -84 vlineto
          -23 callsubr
          -107 -56 -57 -97 hvcurveto
          endchar
        </CharString>
        <CharString name="dvH_MA">
          268 520 194 rmoveto
          -110 9 hlineto
          80 -44 40 -99 vhcurveto
          -61 hlineto
          -32 -12 11 30 hvcurveto
          2 vlineto
          31 11 12 33 vhcurveto
          201 157 113 hlineto
          -472 vmoveto
          -133 116 605 86 99 -757 -99 324 -59 -83 vlineto
          -109 -53 -32 -99 hvcurveto
          -9 vlineto
          -53 17 -25 29 -16 vhcurveto
          -30 -14 -16 -25 -48 vvcurveto
          -81 287 callsubr
          93 vlineto
          27 14 12 35 vhcurveto
          42 hlineto
          37 8 -12 -27 hvcurveto
          -158 112 62 vlineto
          endchar
        </CharString>
        <CharString name="dvH_NA">
          611 467 337 rmoveto
          -10 -264 vlineto
          -32 -12 11 23 hvcurveto
          10 309 callsubr
          33 vhcurveto
          176 161 482 174 callsubr
          394 42 rmoveto
          -379 -104 callgsubr
          -1100 160 callsubr
          62 53 6 10 45 vhcurveto
          234 callsubr
          255 -23 -25 callgsubr
        </CharString>
        <CharString name="dvH_NNA">
          676 229 -7 rmoveto
          62 53 6 10 45 hvcurveto
          234 callsubr
          285 hlineto
          -77 11 53 -44 102 hhcurveto
          117 51 57 96 hvcurveto
          305 95 -89 callgsubr
          -1165 160 callsubr
          vhcurveto
          266 573 rmoveto
          -239 -292 vlineto
          -32 -12 11 23 hvcurveto
          10 309 callsubr
          33 vhcurveto
          176 161 hlineto
          334 hmoveto
          -10 callsubr
          304 vlineto
          endchar
        </CharString>
        <CharString name="dvH_R">
          3 callsubr
          398 -428 -36 callsubr
          endchar
        </CharString>
        <CharString name="dvH_RA">
          3 callsubr
          endchar
        </CharString>
        <CharString name="dvH_VA">
          429 678 497 rmoveto
          51 callgsubr
          -113 -47 -56 -96 hvcurveto
          -146 vlineto
          -62 callgsubr
          -511 -99 307 vlineto
          5 -400 -84 callgsubr
        </CharString>
        <CharString name="dvH_YA">
          269 437 135 rmoveto
          -22 hlineto
          9 14 5 19 27 vvcurveto
          7 vlineto
          80 -52 40 -113 vhcurveto
          -60 hlineto
          -33 -11 11 31 hvcurveto
          3 vlineto
          31 11 13 32 vhcurveto
          208 155 107 -421 hlineto
          -5 -15 -37 -5 -29 hhcurveto
          -177 hmoveto
          -105 167 vlineto
          36 39 5 5 16 hvcurveto
          -74 118 600 86 99 -757 -99 328 -57 -90 vlineto
          -109 -52 -36 -99 hvcurveto
          -3 vlineto
          -54 18 -29 28 -15 vhcurveto
          -30 -18 -16 -27 -47 vvcurveto
          -76 287 callsubr
          88 vlineto
          28 10 18 43 vhcurveto
          45 hlineto
          51 9 -18 -30 hvcurveto
          -9 vlineto
          -34 -22 -5 -36 vhcurveto
          endchar
        </CharString>
        <CharString name="dvI">
          -5 155 169 rmoveto
          -116 -246 116 88 hlineto
          -1 6 31 -7 35 hhcurveto
          119 42 52 97 hvcurveto
          30 vlineto
          97 -54 45 -116 vhcurveto
          -25 hlineto
          -34 -10 13 24 hvcurveto
          3 vlineto
          25 9 13 35 vhcurveto
          168 164 87 99 -483 -99 278 -62 -50 hlineto
          -109 -54 -39 -97 hvcurveto
          -9 vlineto
          -96 58 -39 105 vhcurveto
          25 hlineto
          42 10 -20 -26 hvcurveto
          -22 vlineto
          -31 -15 -16 -44 -25 -24 5 2 -7 vhcurveto
          endchar
        </CharString>
        <CharString name="dvII">
          -5 357 665 rmoveto
          -14 27 -10 32 22 vvcurveto
          38 24 8 31 14 15 -2 -1 3 vhcurveto
          105 vlineto
          -3 -21 5 -47 hhcurveto
          -66 -69 -26 -102 -41 15 -37 13 -28 23 callsubr
        </CharString>
        <CharString name="dvII_Anusvara">
          -3 436 705 103 callsubr
          -79 -40 rmoveto
          -22 35 -12 49 32 vvcurveto
          45 28 20 39 vhcurveto
          11 16 -2 3 hhcurveto
          96 vlineto
          -3 -21 6 -37 hhcurveto
          -84 -71 -31 -109 -51 17 -55 21 -35 23 callsubr
        </CharString>
        <CharString name="dvJ">
          -60 417 665 rmoveto
          -452 -99 452 hlineto
          -78 vmoveto
          -325 -101 callsubr
          103 hlineto
          endchar
        </CharString>
        <CharString name="dvJA">
          164 323 333 73 callgsubr
        </CharString>
        <CharString name="dvJH">
          11 387 143 rmoveto
          249 callsubr
          116 93 -275 hlineto
          115 callsubr
          112 99 -522 -99 292 -62 -44 hlineto
          15 callsubr
          endchar
        </CharString>
        <CharString name="dvJHA">
          216 214 224 45 callgsubr
          -6 22 -11 12 vhcurveto
          97 -231 -104 callgsubr
          -704 -99 290 -62 -50 hlineto
          -109 -53 -39 -97 hvcurveto
          169 callsubr
        </CharString>
        <CharString name="dvJH_MA">
          620 212 324 rmoveto
          115 callsubr
          294 212 callgsubr
          -105 -48 -43 -74 -9 hvcurveto
          211 -120 -40 callgsubr
          -1109 -99 292 -62 -44 hlineto
          15 callsubr
          249 callsubr
          86 -31 247 callsubr
        </CharString>
        <CharString name="dvJH_NA">
          618 473 337 rmoveto
          -13 -261 vlineto
          115 callsubr
          492 174 callsubr
          394 42 rmoveto
          -379 -104 callgsubr
          -1106 -99 292 -62 -44 vlineto
          15 callsubr
          249 callsubr
          102 -25 -25 callgsubr
        </CharString>
        <CharString name="dvJH_R">
          84 322 callsubr
          182 hlineto
          -247 -314 rlineto
          133 hlineto
          67 85 34 43 23 36 11 31 rlinecurve
          212 -347 300 callgsubr
          239 164 105 99 -594 -99 371 -62 -121 hlineto
          233 callgsubr
          -26 vlineto
          -30 -13 -18 -44 -18 -17 4 2 -7 vhcurveto
          55 -116 -240 116 83 vlineto
          -1 7 27 -6 28 hhcurveto
          98 57 37 105 hvcurveto
          endchar
        </CharString>
        <CharString name="dvJH_RA">
          292 322 callsubr
          161 hlineto
          1 -26 -227 -288 rlineto
          133 hlineto
          67 85 34 43 17 30 11 31 rlinecurve
          2 hlineto
          -6 -43 0 -33 -20 vvcurveto
          -18 107 574 87 99 -781 -99 371 -62 -121 vlineto
          233 callgsubr
          -23 vlineto
          -30 -13 -18 -44 -18 -17 4 2 -7 vhcurveto
          55 208 callgsubr
          27 -5 28 hhcurveto
          98 57 36 106 hvcurveto
          78 256 rmoveto
          164 88 -242 -327 300 callgsubr
          endchar
        </CharString>
        <CharString name="dvJH_YA">
          521 458 393 rmoveto
          -69 -246 vlineto
          115 callsubr
          194 hlineto
          -59 callsubr
          -52 203 callgsubr
          210 119 -103 callsubr
          -532 -427 rmoveto
          -2 7 31 -5 37 hhcurveto
          97 56 36 105 hvcurveto
          249 callsubr
          90 hlineto
          -98 16 87 -47 116 9 callgsubr
          -1010 -99 292 -62 -44 vlineto
          44 callsubr
          vlineto
          endchar
        </CharString>
        <CharString name="dvJ_BA">
          421 677 494 rmoveto
          178 callgsubr
          -42 -35 -5 -13 -28 hvcurveto
          -399 -101 callsubr
          108 hlineto
          -2 -12 -1 -12 -14 vvcurveto
          -134 vlineto
          36 callsubr
          -910 -99 712 vlineto
          -69 -410 rmoveto
          -35 callgsubr
        </CharString>
        <CharString name="dvJ_DA">
          385 414 214 -84 callsubr
          -873 -99 665 -69 -45 hlineto
          -25 -23 -2 -4 -19 hvcurveto
          -426 -108 102 hlineto
          0 11 -17 -37 vvcurveto
          -116 305 callgsubr
          7 -29 -78 callsubr
          127 10 callsubr
          103 hlineto
          -2 -13 -1 -14 -15 vvcurveto
          endchar
        </CharString>
        <CharString name="dvJ_DDA">
          364 751 179 callsubr
          -850 -99 638 -62 -45 hlineto
          -39 -32 -5 -11 -25 hvcurveto
          -370 -101 callsubr
          83 hlineto
          -1 -6 0 -6 -7 vvcurveto
          -4 callgsubr
        </CharString>
        <CharString name="dvJ_JA">
          507 666 274 callsubr
          86 99 -995 -99 791 -78 -664 -101 callsubr
          224 hlineto
          0 10 -24 2 callsubr
          endchar
        </CharString>
        <CharString name="dvJ_JHA">
          573 571 224 45 callgsubr
          -6 22 -11 12 vhcurveto
          97 -231 -104 callgsubr
          -1061 -99 647 -62 -50 hlineto
          -39 -32 -5 -11 -25 hvcurveto
          -374 -101 callsubr
          87 hlineto
          -1 -6 0 -6 -7 vvcurveto
          169 callsubr
        </CharString>
        <CharString name="dvJ_J_NYA">
          590 417 488 rmoveto
          -325 -101 callsubr
          103 hlineto
          422 179 rmoveto
          -78 -329 -101 114 vlineto
          -11 callgsubr
          97 -387 -104 callgsubr
          -1078 -99 hlineto
          endchar
        </CharString>
        <CharString name="dvJ_J_VA">
          744 993 273 callsubr
          -735 -101 callsubr
          224 hlineto
          0 10 -24 2 callsubr
          124 10 callsubr
          104 hlineto
          -1 -10 -1 -11 -12 vvcurveto
          -146 vlineto
          -62 callgsubr
          -1232 -99 1028 vlineto
          5 -400 -84 callgsubr
        </CharString>
        <CharString name="dvJ_J_YA">
          825 995 512 -102 callsubr
          -30 -8 -17 -21 -9 vhcurveto
          52 -10 -51 34 -100 hhcurveto
          -598 -101 callsubr
          224 hlineto
          0 10 -24 2 callsubr
          124 10 callsubr
          22 hlineto
          63 20 -11 -36 hvcurveto
          -74 -61 callsubr
          -1314 -99 vlineto
          endchar
        </CharString>
        <CharString name="dvJ_KA">
          579 632 147 callsubr
          -35 -29 -6 -11 -22 hvcurveto
          -389 -101 callsubr
          104 hlineto
          -1 -9 -1 -10 -11 vvcurveto
          -158 -83 callgsubr
          -1068 -99 vlineto
          endchar
        </CharString>
        <CharString name="dvJ_MA">
          566 728 192 callsubr
          -203 -237 -94 callsubr
          203 -341 rmoveto
          83 callsubr
          -1055 -99 650 212 callgsubr
          -20 -18 -2 -3 -17 hvcurveto
          33 -21 -47 19 -77 hhcurveto
          -274 -101 callsubr
          29 hlineto
          38 24 -4 -11 13 hvcurveto
          -10 -20 -5 -25 -28 59 callsubr
        </CharString>
        <CharString name="dvJ_NA">
          557 806 379 rmoveto
          -379 -104 callgsubr
          -1045 -99 841 334 callgsubr
          -48 -36 -10 -19 -26 hvcurveto
          21 -27 -43 8 -46 hhcurveto
          -252 -101 callsubr
          55 hlineto
          20 15 -3 -6 11 hvcurveto
          -2 -13 -1 -13 -15 -51 callgsubr
        </CharString>
        <CharString name="dvJ_NY">
          7 545 665 rmoveto
          -580 -99 580 hlineto
          -78 vmoveto
          -412 -101 114 hlineto
          -11 callgsubr
          180 hlineto
          endchar
        </CharString>
        <CharString name="dvJ_NYA">
          213 462 566 rmoveto
          -78 -329 -101 114 vlineto
          -11 callgsubr
          97 -387 -104 callgsubr
          -701 -99 hlineto
          endchar
        </CharString>
        <CharString name="dvJ_NY_YA">
          524 247 387 rmoveto
          -11 callgsubr
          23 hlineto
          58 13 -12 -36 1 hvcurveto
          -73 vlineto
          -122 89 -58 129 43 31 6 12 21 vhcurveto
          -104 -104 callgsubr
          -1012 -99 587 vlineto
          16 10 -17 -37 hvcurveto
          -49 vlineto
          -30 -7 -17 -20 -10 vhcurveto
          54 -8 -55 28 -91 hhcurveto
          -264 -101 hlineto
          443 -106 rmoveto
          39 14 callsubr
          71 326 callsubr
          92 -335 hlineto
          -25 -18 -25 -10 -45 hhcurveto
          -78 -31 30 55 hvcurveto
          endchar
        </CharString>
        <CharString name="dvJ_R">
          -21 174 43 callsubr
          endchar
        </CharString>
        <CharString name="dvJ_RA">
          185 435 26 callgsubr
          endchar
        </CharString>
        <CharString name="dvJ_TA">
          417 420 145 -78 callgsubr
          -905 -99 701 -76 vlineto
          139 callsubr
          -27 -23 -3 -7 -20 hvcurveto
          -426 -101 callsubr
          111 hlineto
          -3 -15 -2 -17 -18 vvcurveto
          endchar
        </CharString>
        <CharString name="dvJ_TTA">
          378 538 201 callsubr
          -859 -99 651 -72 -21 hlineto
          -22 -20 -2 -4 -18 hvcurveto
          -443 -101 callsubr
          112 hlineto
          -4 -17 -2 -18 -20 vvcurveto
          38 callgsubr
        </CharString>
        <CharString name="dvJ_VA">
          402 651 273 callsubr
          -393 -101 callsubr
          105 hlineto
          -1 -10 -1 -11 -12 vvcurveto
          -146 vlineto
          -62 callgsubr
          -890 -99 686 vlineto
          5 -400 -84 callgsubr
        </CharString>
        <CharString name="dvJ_YA">
          480 649 512 -26 callgsubr
          127 callsubr
          -78 -35 30 55 hvcurveto
          39 14 callsubr
          -122 125 rmoveto
          -34 callgsubr
          -49 vlineto
          -28 -6 -17 -17 -10 vhcurveto
          51 -11 -51 29 -94 hhcurveto
          -263 -101 callsubr
          19 hlineto
          61 23 -8 -38 hvcurveto
          -75 vlineto
          -122 92 85 callgsubr
          -969 -99 vlineto
          endchar
        </CharString>
        <CharString name="dvJx">
          -60 106 -138 rmoveto
          50 16 29 37 36 262 callgsubr
          -15 50 callsubr
          311 803 rmoveto
          -452 -99 452 hlineto
          -78 vmoveto
          -325 -101 callsubr
          103 hlineto
          endchar
        </CharString>
        <CharString name="dvJxA">
          164 57 -125 71 callsubr
          37 -14 28 -51 -51 -15 -28 -37 -37 308 callsubr
          266 458 73 callgsubr
        </CharString>
        <CharString name="dvJx_JxA">
          507 41 14 rmoveto
          -51 -15 70 callsubr
          249 callgsubr
          hvcurveto
          352 -131 67 callgsubr
          273 450 88 callgsubr
          86 99 -995 -99 791 -78 -664 -101 callsubr
          224 hlineto
          0 10 -24 2 callsubr
          endchar
        </CharString>
        <CharString name="dvJx_R">
          -13 179 43 callsubr
          -418 -460 -56 callgsubr
          endchar
        </CharString>
        <CharString name="dvJx_RA">
          190 439 26 callgsubr
          -263 -451 -56 callgsubr
          endchar
        </CharString>
        <CharString name="dvJx_YA">
          480 40 -117 104 callgsubr
          609 629 -26 callgsubr
          127 callsubr
          -78 -35 30 55 hvcurveto
          39 14 callsubr
          -122 125 rmoveto
          -34 callgsubr
          -49 vlineto
          -28 -6 -17 -17 -10 vhcurveto
          51 -11 -51 29 -94 hhcurveto
          -263 -108 102 hlineto
          0 11 -17 -37 vvcurveto
          -105 305 callgsubr
          6 -29 vhcurveto
          -106 vlineto
          -7 28 24 -4 38 hhcurveto
          118 68 53 110 hvcurveto
          116 10 callsubr
          19 hlineto
          61 23 -8 -38 hvcurveto
          -75 vlineto
          -122 92 85 callgsubr
          -969 -99 vlineto
          endchar
        </CharString>
        <CharString name="dvK">
          -1 366 397 rmoveto
          -54 callgsubr
          403 -286 99 673 -99 -272 -68 vlineto
          5 15 25 2 17 hhcurveto
          116 35 -57 -91 hvcurveto
          -13 -105 9 vlineto
          33 -11 17 -45 -16 -17 -2 -4 -14 vhcurveto
          endchar
        </CharString>
        <CharString name="dvKA">
          200 251 566 rmoveto
          -286 99 687 149 callsubr
          -37 -53 -106 vhcurveto
          -10 -10 2 -2 hhcurveto
          110 vlineto
          2 6 -1 6 hhcurveto
          32 1 7 14 32 vvcurveto
          132 vlineto
          30 -11 20 -43 -20 -23 -4 -2 -6 vhcurveto
          -54 callgsubr
          endchar
        </CharString>
        <CharString name="dvKH">
          145 504 255 -16 callgsubr
        </CharString>
        <CharString name="dvKHA">
          357 396 255 56 callsubr
          -844 -99 270 vlineto
          0 11 -17 -37 vvcurveto
          -120 vlineto
          -31 -11 -21 -42 -16 -13 1 2 -14 vhcurveto
          105 -113 -260 vlineto
          22 callsubr
        </CharString>
        <CharString name="dvKH_KHA">
          927 19 callsubr
          676 -42 rmoveto
          -1 -4 -19 -5 -28 264 callgsubr
          6 vhcurveto
          -212 -134 245 callgsubr
          86 99 -1416 -99 270 vlineto
          -96 callgsubr
          459 hlineto
          -45 callgsubr
          4 vlineto
          97 -43 266 callgsubr
          25 21 2 4 19 vhcurveto
          -73 25 68 -45 114 hhcurveto
          43 55 7 11 36 hvcurveto
          212 callsubr
          -35 -42 -8 -48 hhcurveto
          -82 -33 31 57 hvcurveto
          50 vlineto
          -3 16 18 -2 17 hhcurveto
          109 302 callgsubr
          -8 -12 callgsubr
          260 -74 hlineto
          1 -7 -27 5 -31 175 callgsubr
          endchar
        </CharString>
        <CharString name="dvKH_MA">
          765 813 204 141 callgsubr
          -1254 -99 270 hlineto
          -96 callgsubr
          465 -125 -48 hlineto
          -25 -22 -3 -4 -19 hvcurveto
          40 -21 -43 21 -79 hhcurveto
          4 callsubr
          29 24 3 5 19 vhcurveto
          -37 23 42 -21 72 hhcurveto
          285 callsubr
          hvcurveto
          141 90 vlineto
          -513 -86 -64 callgsubr
          endchar
        </CharString>
        <CharString name="dvKH_NA">
          754 19 callsubr
          499 124 rmoveto
          -379 -104 callgsubr
          -1242 -99 270 vlineto
          -96 callgsubr
          655 -78 -236 hlineto
          -43 -33 -8 -15 -24 hvcurveto
          20 -22 -34 10 -55 hhcurveto
          4 callsubr
          29 24 4 7 19 vhcurveto
          -41 23 44 -22 72 -67 callsubr
        </CharString>
        <CharString name="dvKH_R">
          -27 callgsubr
          endchar
        </CharString>
        <CharString name="dvKH_RA">
          355 396 255 56 callsubr
          -844 -99 270 vlineto
          -47 callgsubr
          -108 60 -60 128 -8 vhcurveto
          -126 -96 rlineto
          -4 vlineto
          154 -13 119 112 rlineto
          109 vlineto
          -11 -31 -39 -7 -37 52 callgsubr
        </CharString>
        <CharString name="dvKH_SHA">
          766 504 255 rmoveto
          59 vlineto
          30 9 18 43 43 10 -18 -30 vhcurveto
          -59 93 callgsubr
          195 99 -578 0 callsubr
          625 652 108 callgsubr
          -10 1 -10 1 -5 vhcurveto
          118 hlineto
          0 -2 15 4 vvcurveto
          28 9 23 43 43 9 -21 -28 vhcurveto
          -122 vlineto
          -28 -9 -20 -43 -3 -25 0 1 -29 vhcurveto
          78 -8 -41 41 -110 hhcurveto
          -123 -36 -51 -97 hvcurveto
          -59 141 callsubr
          65 vlineto
          -3 7 27 41 callsubr
          endchar
        </CharString>
        <CharString name="dvKH_TA">
          598 390 13 -29 callgsubr
          114 242 -64 callgsubr
          endchar
        </CharString>
        <CharString name="dvKH_VA">
          593 19 callsubr
          344 -89 -89 callsubr
          -5 99 rmoveto
          51 callgsubr
          -52 -39 -12 -23 -26 hvcurveto
          15 -21 -31 9 -44 hhcurveto
          4 callsubr
          30 23 4 8 19 vhcurveto
          -40 23 45 -22 73 154 callgsubr
          -1082 -99 270 vlineto
          -96 callgsubr
          495 hlineto
          endchar
        </CharString>
        <CharString name="dvKH_YA">
          673 19 callsubr
          338 257 -102 callsubr
          -32 -9 -17 -22 -8 vhcurveto
          55 -11 -35 39 -94 hhcurveto
          4 callsubr
          50 33 12 20 22 vhcurveto
          -36 40 60 -17 70 9 callgsubr
          -1161 -99 270 vlineto
          -96 callgsubr
          endchar
        </CharString>
        <CharString name="dvKHx">
          146 44 -135 71 callsubr
          37 -14 28 -51 -51 -15 -28 -37 -37 308 callsubr
          460 390 -16 callgsubr
        </CharString>
        <CharString name="dvKHxA">
          359 46 -135 24 callsubr
          353 390 231 callgsubr
          -848 -99 274 vlineto
          0 11 -2 callgsubr
          -12 -21 -42 -15 -93 callgsubr
          259 -74 hlineto
          1 -6 -27 5 -32 hhcurveto
          -115 -32 -55 -97 hvcurveto
          212 21 callgsubr
          endchar
        </CharString>
        <CharString name="dvKHx_MA">
          772 19 callsubr
          -457 -390 24 callsubr
          774 339 -40 callgsubr
          -1261 -99 270 hlineto
          -96 callgsubr
          473 212 callgsubr
          -28 -24 -3 -6 -20 hvcurveto
          42 -21 -43 21 -80 hhcurveto
          4 callsubr
          30 24 3 6 20 vhcurveto
          -38 24 46 -21 72 130 callgsubr
        </CharString>
        <CharString name="dvKHx_R">
          -27 callgsubr
          294 8 -56 callgsubr
          endchar
        </CharString>
        <CharString name="dvKHx_RA">
          361 396 255 56 callsubr
          -844 -99 270 vlineto
          -47 callgsubr
          -108 60 -60 128 -8 vhcurveto
          -126 -96 rlineto
          -4 vlineto
          154 -13 119 112 rlineto
          109 vlineto
          -11 -31 -39 -7 -37 -54 callsubr
          -109 -522 -56 callgsubr
          endchar
        </CharString>
        <CharString name="dvKHx_SA">
          767 46 -135 24 callsubr
          889 151 132 callsubr
          -1255 -99 270 hlineto
          -96 callgsubr
          450 hlineto
          0 10 183 callgsubr
          6 vlineto
          97 -37 266 callgsubr
          22 20 2 3 17 vhcurveto
          -72 17 57 -45 107 hhcurveto
          61 44 9 12 34 hvcurveto
          -38 callsubr
          -512 -311 -64 callgsubr
          endchar
        </CharString>
        <CharString name="dvKHx_SHA">
          766 504 255 rmoveto
          62 vlineto
          30 9 18 43 43 10 -18 -30 vhcurveto
          -62 93 callgsubr
          192 99 -575 0 callsubr
          625 652 108 callgsubr
          -10 1 -10 1 -5 vhcurveto
          118 hlineto
          0 -2 15 4 vvcurveto
          28 9 23 43 43 9 -21 -28 vhcurveto
          -122 vlineto
          -28 -9 -20 -43 -18 -20 1 1 -19 vhcurveto
          80 -7 -41 41 -111 hhcurveto
          -123 -36 -51 -97 hvcurveto
          -62 141 callsubr
          64 vlineto
          -2 7 27 41 callsubr
          -895 -521 24 callsubr
          endchar
        </CharString>
        <CharString name="dvKHx_TA">
          598 44 -135 24 callsubr
          460 390 rmoveto
          92 vlineto
          30 9 18 43 43 10 -18 -30 vhcurveto
          -92 vlineto
          -30 -10 -18 -43 -43 -9 18 30 vhcurveto
          -114 -242 -29 callgsubr
          endchar
        </CharString>
        <CharString name="dvKHx_VA">
          594 47 -135 24 callsubr
          457 108 callsubr
          344 -89 rmoveto
          -4 -10 -22 134 callsubr
          -5 99 rmoveto
          51 callgsubr
          -52 -39 -12 -23 -26 hvcurveto
          15 -21 -31 9 -44 hhcurveto
          4 callsubr
          30 23 4 8 19 vhcurveto
          -40 23 45 -22 73 154 callgsubr
          -1082 -99 270 vlineto
          -96 callgsubr
          495 hlineto
          endchar
        </CharString>
        <CharString name="dvKHx_YA">
          673 47 -135 24 callsubr
          457 108 callsubr
          338 257 -13 callsubr
          -24 -28 41 callgsubr
          -122 321 callgsubr
          -9 -17 -22 -8 vhcurveto
          55 -11 -35 39 -94 hhcurveto
          4 callsubr
          50 33 12 20 22 vhcurveto
          -36 40 60 -17 70 9 callgsubr
          -1161 -99 270 vlineto
          -96 callgsubr
          endchar
        </CharString>
        <CharString name="dvK_CA">
          498 366 hmoveto
          397 vlineto
          4 14 17 2 16 hhcurveto
          45 11 -17 -33 hvcurveto
          -37 46 vlineto
          0 -7 -22 -37 vvcurveto
          -45 vlineto
          -105 50 -51 111 29 28 3 6 21 vhcurveto
          -65 -94 callgsubr
          85 99 -985 -33 callgsubr
          440 160 rmoveto
          -42 -22 17 38 hvcurveto
          41 vlineto
          46 11 -12 callgsubr
          69 101 -140 hlineto
          52 -16 -42 31 -85 hhcurveto
          127 callgsubr
          hvcurveto
          68 381 277 callgsubr
          endchar
        </CharString>
        <CharString name="dvK_DA">
          439 423 505 187 callgsubr
          319 -69 -45 vlineto
          -46 -37 -6 -15 -27 hvcurveto
          19 -23 -35 10 -49 hhcurveto
          46 -291 -84 callsubr
          -928 -71 callgsubr
          endchar
        </CharString>
</ttFont>
